<?xml version="1.0" encoding="UTF-8"?>
<svg version="1.1" xmlns="http://www.w3.org/2000/svg" width="150" height="172">
<path d="M0 0 C2.24996994 0.0891977 4.50217001 0.13060723 6.75390625 0.1328125 C8.02041016 0.13410156 9.28691406 0.13539062 10.59179688 0.13671875 C11.90212891 0.13285156 13.21246094 0.12898438 14.5625 0.125 C15.87669922 0.12886719 17.19089844 0.13273437 18.54492188 0.13671875 C19.81013672 0.13542969 21.07535156 0.13414063 22.37890625 0.1328125 C24.10475952 0.13112061 24.10475952 0.13112061 25.86547852 0.12939453 C28.96178935 0.0852754 28.96178935 0.0852754 31.78881836 -0.57080078 C34 -1 34 -1 36 0 C38.48399095 0.10842966 40.94488938 0.16136212 43.4296875 0.17578125 C44.96355482 0.19901727 46.49740897 0.22313602 48.03125 0.24804688 C50.43791016 0.28285193 52.8440979 0.31232536 55.25097656 0.32592773 C70.37644211 0.42804191 82.29956676 2.57295776 94 13 C98.76891663 18.07916214 102.22068081 23.63535905 105 30 C105.433125 30.94875 105.86625 31.8975 106.3125 32.875 C107 35 107 35 106 37 C105.86871357 39.14434495 105.76979728 41.2907167 105.6875 43.4375 C104.81202459 56.41045374 99.54224555 67.36102092 90.1171875 76.3671875 C79.65828117 84.43328132 67.96212066 87.11502113 55 86 C42.75257639 83.4154118 33.38099224 77.04008333 26 67 C19.44642824 55.97203534 17.7936295 45.68032071 18 33 C16.35 33 14.7 33 13 33 C13.30727025 35.81316358 13.62055152 38.62542519 13.9375 41.4375 C14.02451172 42.23994141 14.11152344 43.04238281 14.20117188 43.86914062 C14.30548394 47.75576664 14.30548394 47.75576664 16 51 C16.2982732 53.83359542 16.35602594 55.43785378 14.8125 57.875 C13 59 13 59 10.375 58.75 C8 58 8 58 7 57 C5.60538053 49.09715636 5.8963929 40.98925829 6 33 C4.453125 33.495 4.453125 33.495 2.875 34 C-0.50004428 34.95843042 -3.4738453 35.32801439 -7 35 C-9 33 -9 33 -9.25 30 C-9 27 -9 27 -7 25 C-4.0039978 24.77053833 -4.0039978 24.77053833 -0.10693359 24.80126953 C0.60227234 24.80430588 1.31147827 24.80734222 2.04217529 24.81047058 C4.39552524 24.82379155 6.74837432 24.85246692 9.1015625 24.8828125 C10.73863414 24.89883367 12.37570904 24.91452529 14.01278687 24.92990112 C17.45119633 24.96494364 20.88938949 25.00831797 24.32763672 25.05664062 C28.71886159 25.11708983 33.10982246 25.15052014 37.50136757 25.17669868 C40.88692163 25.20104431 44.27208436 25.24328179 47.65739059 25.29043198 C49.27512593 25.31020914 50.89295075 25.32374212 52.51079178 25.33075333 C68.29387573 25.41326905 68.29387573 25.41326905 75 30 C79.62486872 34.86204147 80.35709691 38.92581464 80.28125 45.4296875 C79.72141534 50.54595429 77.2966534 53.73746906 73.625 57.3125 C68.74296101 60.45095364 64.84271712 61.49660358 59.01953125 60.5390625 C53.35081852 59.02594382 49.23314608 55.90959219 46 51 C42.94181534 45.49526762 43.32036106 38.92576618 45 33 C43.02 33 41.04 33 39 33 C38.47467989 40.74847157 39.69070402 47.91677909 43 55 C45.43922255 57.26539672 45.43922255 57.26539672 48 59 C48.9590625 60.051875 48.9590625 60.051875 49.9375 61.125 C54.14045179 64.94586526 59.14702603 65.46559437 64.6328125 65.30859375 C70.49427833 64.54447527 75.32466232 62.11285853 79.375 57.8125 C83.40908552 52.5423437 85.40055588 46.96581374 84.875 40.3125 C83.75507325 33.59293952 81.02029815 29.63367788 75.9140625 25.296875 C71.65610177 22.41188936 68.03714952 21.74158199 62.9375 21.8125 C61.91527344 21.81894531 60.89304687 21.82539062 59.83984375 21.83203125 C57.073646 21.9053774 57.073646 21.9053774 54.75390625 22.57421875 C53 23 53 23 51 22 C49.36182649 21.90462049 47.71980459 21.87204923 46.07885742 21.87060547 C44.54167305 21.86587723 44.54167305 21.86587723 42.97343445 21.86105347 C41.86200577 21.8630777 40.75057709 21.86510193 39.60546875 21.8671875 C37.89620964 21.86575241 37.89620964 21.86575241 36.15242004 21.86428833 C33.73727361 21.86360673 31.32212535 21.86545961 28.90698242 21.86962891 C25.21333681 21.87496269 21.51981361 21.86969083 17.82617188 21.86328125 C15.48177056 21.86394232 13.13736933 21.86522409 10.79296875 21.8671875 C9.68761276 21.86516327 8.58225677 21.86313904 7.44340515 21.86105347 C5.89203606 21.86578171 5.89203606 21.86578171 4.30932617 21.87060547 C3.40268723 21.87140106 2.49604828 21.87219666 1.56193542 21.87301636 C-1.04338862 21.93495049 -1.04338862 21.93495049 -3.71464539 22.57058716 C-6 23 -6 23 -7.875 22 C-9.62020832 18.89740743 -8.69997967 16.3726293 -8 13 C-2.375 11.875 -2.375 11.875 1 13 C2.5737539 13.09192787 4.15110326 13.12790623 5.72753906 13.12939453 C6.68573547 13.13254669 7.64393188 13.13569885 8.63116455 13.13894653 C9.6655365 13.1369223 10.69990845 13.13489807 11.765625 13.1328125 C12.83238464 13.13376923 13.89914429 13.13472595 14.99822998 13.13571167 C17.25777241 13.13639264 19.51731679 13.13454413 21.77685547 13.13037109 C25.22237599 13.12504272 28.66776491 13.13030803 32.11328125 13.13671875 C34.30989612 13.13605754 36.50651091 13.1347755 38.703125 13.1328125 C40.24253754 13.13584885 40.24253754 13.13584885 41.81304932 13.13894653 C45.95883905 13.12548534 49.98203061 13.08702328 54.08105469 12.42919922 C57 12 57 12 59 13 C61.33204251 13.24194941 63.66567577 13.4686571 66 13.6875 C74.08109562 14.64367123 80.23616818 16.98472221 85.87109375 22.99609375 C91.45909967 30.08495497 93.08943288 37.02317512 93 46 C91.3226657 55.99411686 86.13611192 63.17523581 78.0625 69.1875 C69.98225907 73.96968341 62.17296468 74.02009414 53.09765625 72.23046875 C46.75632425 70.58935659 41.78860037 68.89766728 38.25 63 C37.47428653 61.3451446 36.72373962 59.6782368 36 58 C35.48308594 57.14664063 34.96617188 56.29328125 34.43359375 55.4140625 C30.46549638 48.73208928 30.75101348 41.52492597 31 34 C29.35 33.67 27.7 33.34 26 33 C26.34815558 46.87400006 27.783256 58.62140659 38 69 C44.87129008 74.93606724 53.10054048 78.00960135 62.1875 78.3125 C72.25849658 77.48700848 81.35415325 74.22759328 88.375 66.75 C95.53182947 58.08951343 97.80197915 49.05585537 97 38 C95.20122446 28.00092423 91.20244183 21.93518756 84 14.9296875 C74.06251237 8.53760561 63.51042293 8.45883139 52.125 8.6875 C50.64063762 8.69902556 49.15626059 8.70880051 47.671875 8.71679688 C40.13738574 8.73933991 40.13738574 8.73933991 32.66357422 9.57739258 C30 10 30 10 28 9 C25.96539191 8.90257117 23.92756346 8.86923086 21.890625 8.8671875 C20.66085938 8.86589844 19.43109375 8.86460938 18.1640625 8.86328125 C16.87242188 8.86714844 15.58078125 8.87101562 14.25 8.875 C12.97382813 8.87113281 11.69765625 8.86726563 10.3828125 8.86328125 C9.14789062 8.86457031 7.91296875 8.86585937 6.640625 8.8671875 C4.94728027 8.86887939 4.94728027 8.86887939 3.21972656 8.87060547 C-0.0286134 8.929599 -0.0286134 8.929599 -3.29785156 9.57861328 C-6 10 -6 10 -7.875 8.875 C-9.37957373 6.36737712 -9.4318188 4.87879197 -9 2 C-6.58525731 -2.02457115 -4.16658189 -0.72946732 0 0 Z M52.1484375 35.30859375 C50.64236292 38.83813588 50.5321555 41.19040905 51 45 C53.02666238 48.70390021 54.48044516 50.65363011 58 53 C62.56051995 53.73446576 66.01911074 53.59262059 70 51.1875 C72.5930271 48.35137661 72.95288103 46.4240707 73.375 42.625 C73.32288226 38.85005616 73.32288226 38.85005616 70.625 36.125 C66.8764849 33.09048777 64.84535078 32.77573227 60.0625 32.625 C59.00160156 32.57601562 57.94070312 32.52703125 56.84765625 32.4765625 C53.81681734 32.71272479 53.81681734 32.71272479 52.1484375 35.30859375 Z " fill="#BD2A50" transform="translate(15,34)"/>
<path d="M0 0 C1.37735823 0.01199204 2.75464364 0.0353363 4.13168335 0.06729126 C4.88300034 0.07675278 5.63431732 0.08621429 6.40840149 0.09596252 C8.89762376 0.1297042 11.38635444 0.17780125 13.87533569 0.22598267 C15.5988231 0.25214323 17.32232428 0.27741076 19.0458374 0.30181885 C23.58669427 0.36853425 28.12726235 0.4474129 32.6678772 0.52877808 C37.29941709 0.60963547 41.93112663 0.67905454 46.56283569 0.74942017 C55.65418492 0.88923173 64.74527016 1.04188631 73.83627319 1.20254517 C74.33127319 2.19254517 74.33127319 2.19254517 74.83627319 3.20254517 C75.49627319 2.54254517 76.15627319 1.88254517 76.83627319 1.20254517 C88.17341207 1.98869713 101.44853239 11.56901327 108.97689819 19.44082642 C118.24437232 30.20139359 121.53103586 42.42704318 122.21127319 56.32754517 C122.83081145 65.8787599 126.29219191 70.97654009 132.54330444 78.02676392 C133.83627319 80.20254517 133.83627319 80.20254517 133.6968689 82.61831665 C132.59803977 85.91792127 131.17599931 86.74535149 128.35971069 88.72598267 C124.44109417 92.03313982 123.16555084 94.1293664 122.62533569 99.24160767 C122.52800725 101.43544332 122.47416026 103.63158942 122.46127319 105.82754517 C122.09251686 119.58375983 122.09251686 119.58375983 118.83627319 124.20254517 C109.08904488 130.17023597 96.5403596 126.68996164 85.83627319 125.20254517 C85.35158569 126.14098267 84.86689819 127.07942017 84.36752319 128.04629517 C79.08995063 137.7702426 79.08995063 137.7702426 74.21127319 139.45254517 C55.6626487 136.04046943 37.12371347 118.47651423 26.69638062 103.57192993 C22.3439354 97.09198656 18.71678262 90.47583147 15.83627319 83.20254517 C15.46760132 82.3350061 15.09892944 81.46746704 14.71908569 80.57363892 C13.74783519 77.96501478 13.67852023 75.96322204 13.83627319 73.20254517 C16.80627319 72.70754517 16.80627319 72.70754517 19.83627319 72.20254517 C20.26037476 73.04817017 20.68447632 73.89379517 21.12142944 74.76504517 C26.59141577 85.34435938 32.20365194 93.36841208 42.83627319 99.20254517 C43.58908569 99.61762329 44.34189819 100.03270142 45.11752319 100.46035767 C55.92098558 105.34926628 70.88803003 105.10996949 81.96127319 101.20254517 C95.18716371 95.07722977 105.72345102 85.09828463 110.83627319 71.20254517 C114.77076076 57.74545725 114.2471911 44.23494614 107.55111694 31.81973267 C100.37865597 20.0321227 89.60718235 13.94522885 76.84408569 9.68301392 C74.53199546 9.0473926 74.53199546 9.0473926 70.83627319 9.20254517 C68.67595324 9.19765576 66.51563432 9.19230504 64.35531616 9.18667603 C57.83533952 9.1706679 51.31536853 9.15909736 44.79537773 9.15073299 C40.85212986 9.1454969 36.90890333 9.13837848 32.96566772 9.12710571 C29.14853835 9.1162654 25.33142961 9.11026667 21.51428604 9.10766792 C20.05898843 9.10581769 18.60369198 9.10220475 17.14840317 9.09681511 C15.11842703 9.08958834 13.08843016 9.08913697 11.05844116 9.08901978 C9.90246429 9.08679916 8.74648743 9.08457855 7.55548096 9.08229065 C4.86971086 9.01613454 4.86971086 9.01613454 2.83627319 10.20254517 C-0.16372681 10.39004517 -0.16372681 10.39004517 -3.16372681 10.20254517 C-5.16372681 8.20254517 -5.16372681 8.20254517 -5.41372681 5.20254517 C-5.06011095 0.95915489 -4.23595528 0.27119038 0 0 Z " fill="#EC335B" transform="translate(11.163726806640625,20.797454833984375)"/>
<path d="M0 0 C2.24996994 0.0891977 4.50217001 0.13060723 6.75390625 0.1328125 C8.02041016 0.13410156 9.28691406 0.13539062 10.59179688 0.13671875 C11.90212891 0.13285156 13.21246094 0.12898438 14.5625 0.125 C15.87669922 0.12886719 17.19089844 0.13273437 18.54492188 0.13671875 C19.81013672 0.13542969 21.07535156 0.13414063 22.37890625 0.1328125 C24.10475952 0.13112061 24.10475952 0.13112061 25.86547852 0.12939453 C28.96178935 0.0852754 28.96178935 0.0852754 31.78881836 -0.57080078 C34 -1 34 -1 36 0 C38.48399095 0.10842966 40.94488938 0.16136212 43.4296875 0.17578125 C44.96355482 0.19901727 46.49740897 0.22313602 48.03125 0.24804688 C50.43791016 0.28285193 52.8440979 0.31232536 55.25097656 0.32592773 C70.37644211 0.42804191 82.29956676 2.57295776 94 13 C98.76891663 18.07916214 102.22068081 23.63535905 105 30 C105.433125 30.94875 105.86625 31.8975 106.3125 32.875 C107 35 107 35 106 37 C105.86871357 39.14434495 105.76979728 41.2907167 105.6875 43.4375 C104.81202459 56.41045374 99.54224555 67.36102092 90.1171875 76.3671875 C79.65828117 84.43328132 67.96212066 87.11502113 55 86 C42.75257639 83.4154118 33.38099224 77.04008333 26 67 C19.44642824 55.97203534 17.7936295 45.68032071 18 33 C16.35 33 14.7 33 13 33 C13.30727025 35.81316358 13.62055152 38.62542519 13.9375 41.4375 C14.02451172 42.23994141 14.11152344 43.04238281 14.20117188 43.86914062 C14.30548394 47.75576664 14.30548394 47.75576664 16 51 C16.2982732 53.83359542 16.35602594 55.43785378 14.8125 57.875 C13 59 13 59 10.375 58.75 C8 58 8 58 7 57 C5.60538053 49.09715636 5.8963929 40.98925829 6 33 C4.453125 33.495 4.453125 33.495 2.875 34 C-0.50004428 34.95843042 -3.4738453 35.32801439 -7 35 C-9 33 -9 33 -9.25 30 C-9 27 -9 27 -7 25 C-3.95016479 24.79745483 -3.95016479 24.79745483 0.02001953 24.86474609 C0.74207581 24.87420761 1.46413208 24.88366913 2.20806885 24.89341736 C4.59990444 24.92715411 6.99122789 24.97525232 9.3828125 25.0234375 C11.03903863 25.04959858 12.69527909 25.07486607 14.35153198 25.09927368 C18.71484491 25.16598404 23.07785707 25.24486374 27.44091797 25.32623291 C31.89148395 25.40709525 36.3422266 25.47651124 40.79296875 25.546875 C49.5288603 25.68667995 58.26446733 25.83933447 67 26 C67 26.33 67 26.66 67 27 C58.0726954 27.15389549 49.14531957 27.30207618 40.21780014 27.4429636 C36.07239336 27.50856287 31.92703812 27.57612959 27.78173828 27.64819336 C23.78124628 27.71766731 19.78070151 27.7819722 15.78006744 27.84269524 C14.25382725 27.86676933 12.72761525 27.89270528 11.2014389 27.92053413 C9.0636994 27.95919627 6.92595541 27.99123524 4.78808594 28.02172852 C3.5711908 28.04171402 2.35429565 28.06169952 1.1005249 28.08229065 C-1.48989679 28.01353859 -3.54703165 27.77623807 -6 27 C-5.67 28.65 -5.34 30.3 -5 32 C-4.01 32.33 -3.02 32.66 -2 33 C-2 32.34 -2 31.68 -2 31 C1.3 31.33 4.6 31.66 8 32 C8 36.95 8 41.9 8 47 C8.66 47 9.32 47 10 47 C11.0541518 43.83754459 11.31275672 41.13051782 11.5625 37.8125 C11.64628906 36.72582031 11.73007812 35.63914063 11.81640625 34.51953125 C11.87699219 33.68808594 11.93757813 32.85664062 12 32 C14.64 32 17.28 32 20 32 C20.495 40.415 20.495 40.415 21 49 C21.66 49 22.32 49 23 49 C23.06058594 47.85660156 23.12117188 46.71320313 23.18359375 45.53515625 C23.26798428 44.04425695 23.35263302 42.55337225 23.4375 41.0625 C23.47681641 40.30775391 23.51613281 39.55300781 23.55664062 38.77539062 C23.88671875 33.11328125 23.88671875 33.11328125 25 32 C27.64 32 30.28 32 33 32 C33.495 42.395 33.495 42.395 34 53 C31.50873676 48.01747351 30.87156729 44.7883476 30.9375 39.25 C30.94652344 38.26515625 30.95554688 37.2803125 30.96484375 36.265625 C30.97644531 35.51796875 30.98804688 34.7703125 31 34 C29.35 33.67 27.7 33.34 26 33 C26.34815558 46.87400006 27.783256 58.62140659 38 69 C44.87129008 74.93606724 53.10054048 78.00960135 62.1875 78.3125 C72.25849658 77.48700848 81.35415325 74.22759328 88.375 66.75 C95.53182947 58.08951343 97.80197915 49.05585537 97 38 C95.20122446 28.00092423 91.20244183 21.93518756 84 14.9296875 C74.06251237 8.53760561 63.51042293 8.45883139 52.125 8.6875 C50.64063762 8.69902556 49.15626059 8.70880051 47.671875 8.71679688 C40.13738574 8.73933991 40.13738574 8.73933991 32.66357422 9.57739258 C30 10 30 10 28 9 C25.96539191 8.90257117 23.92756346 8.86923086 21.890625 8.8671875 C20.66085938 8.86589844 19.43109375 8.86460938 18.1640625 8.86328125 C16.87242188 8.86714844 15.58078125 8.87101562 14.25 8.875 C12.97382813 8.87113281 11.69765625 8.86726563 10.3828125 8.86328125 C9.14789062 8.86457031 7.91296875 8.86585937 6.640625 8.8671875 C4.94728027 8.86887939 4.94728027 8.86887939 3.21972656 8.87060547 C-0.0286134 8.929599 -0.0286134 8.929599 -3.29785156 9.57861328 C-6 10 -6 10 -7.875 8.875 C-9.37957373 6.36737712 -9.4318188 4.87879197 -9 2 C-6.58525731 -2.02457115 -4.16658189 -0.72946732 0 0 Z " fill="#BA385A" transform="translate(15,34)"/>
<path d="M0 0 C0.33 0 0.66 0 1 0 C1.0992783 6.85479859 0.8664745 13.61004494 0.25 20.4375 C0.1571875 21.76297852 0.1571875 21.76297852 0.0625 23.11523438 C-0.5166661 29.46192957 -0.5166661 29.46192957 -2.828125 32.03515625 C-12.73117401 36.43453234 -24.656336 33.43733296 -35 32 C-35.4846875 32.9384375 -35.969375 33.876875 -36.46875 34.84375 C-41.74632257 44.56769744 -41.74632257 44.56769744 -46.625 46.25 C-61.29149284 43.55205415 -74.28036618 31.77943103 -84.75 21.875 C-85.26385254 21.40876221 -85.77770508 20.94252441 -86.30712891 20.4621582 C-90.3484895 16.4767932 -90.74285328 13.43514664 -91 8 C-89.68 7.01 -88.36 6.02 -87 5 C-86.484375 5.5775 -85.96875 6.155 -85.4375 6.75 C-83.39318231 8.63706248 -81.76474478 9.79791835 -79.375 11.125 C-76 13 -76 13 -74 15 C-64.96105129 18.31105875 -56.07685543 19.39076005 -46.5 19.4375 C-45.5812207 19.4473291 -44.66244141 19.4571582 -43.71582031 19.46728516 C-37.79237706 19.39294584 -33.4299819 18.36162987 -28 16 C-26.625 15.5 -25.25 15 -23.875 14.5 C-21.3411111 13.55727362 -19.05987408 12.52993704 -16.625 11.3125 C-14 10 -14 10 -12 10 C-12 9.34 -12 8.68 -12 8 C-11.37351562 7.82984375 -10.74703125 7.6596875 -10.1015625 7.484375 C-9.28429687 7.24203125 -8.46703125 6.9996875 -7.625 6.75 C-6.81289062 6.51796875 -6.00078125 6.2859375 -5.1640625 6.046875 C-2.52073404 4.76815293 -2.059043 3.674351 -1 1 C-0.67 0.67 -0.34 0.34 0 0 Z " fill="#B5264A" transform="translate(132,114)"/>
<path d="M0 0 C1.37735823 0.01199204 2.75464364 0.0353363 4.13168335 0.06729126 C4.88300034 0.07675278 5.63431732 0.08621429 6.40840149 0.09596252 C8.89762376 0.1297042 11.38635444 0.17780125 13.87533569 0.22598267 C15.5988231 0.25214323 17.32232428 0.27741076 19.0458374 0.30181885 C23.58669427 0.36853425 28.12726235 0.4474129 32.6678772 0.52877808 C37.29941709 0.60963547 41.93112663 0.67905454 46.56283569 0.74942017 C55.65418492 0.88923173 64.74527016 1.04188631 73.83627319 1.20254517 C74.33127319 2.19254517 74.33127319 2.19254517 74.83627319 3.20254517 C75.49627319 2.54254517 76.15627319 1.88254517 76.83627319 1.20254517 C88.17341207 1.98869713 101.44853239 11.56901327 108.97689819 19.44082642 C119.18050374 31.28834619 121.86177086 44.70383359 122.39486694 59.90567017 C122.88023938 63.53092977 124.16542115 65.98184987 125.83627319 69.20254517 C125.50627319 69.86254517 125.17627319 70.52254517 124.83627319 71.20254517 C123.84627319 71.20254517 122.85627319 71.20254517 121.83627319 71.20254517 C121.50627319 70.21254517 121.17627319 69.22254517 120.83627319 68.20254517 C118.40707454 68.06813738 118.40707454 68.06813738 115.83627319 69.20254517 C114.45334227 71.75772613 113.61835671 74.41120645 112.83627319 77.20254517 C111.84627319 77.20254517 110.85627319 77.20254517 109.83627319 77.20254517 C109.83627319 78.85254517 109.83627319 80.50254517 109.83627319 82.20254517 C108.35127319 82.69754517 108.35127319 82.69754517 106.83627319 83.20254517 C106.69189819 83.78004517 106.54752319 84.35754517 106.39877319 84.95254517 C105.60175468 88.14061924 104.11232263 89.86327213 101.83627319 92.20254517 C99.08627319 93.01504517 99.08627319 93.01504517 96.83627319 93.20254517 C97.19978882 92.74106079 97.56330444 92.27957642 97.93783569 91.80410767 C109.24626781 77.13214189 114.36254504 63.80060434 112.83627319 45.20254517 C110.43341211 33.5589669 103.28307124 24.16574953 93.83627319 17.20254517 C86.93109649 13.02252468 79.00042964 9.20254517 70.83627319 9.20254517 C68.67595324 9.19765576 66.51563432 9.19230504 64.35531616 9.18667603 C57.83533952 9.1706679 51.31536853 9.15909736 44.79537773 9.15073299 C40.85212986 9.1454969 36.90890333 9.13837848 32.96566772 9.12710571 C29.14853835 9.1162654 25.33142961 9.11026667 21.51428604 9.10766792 C20.05898843 9.10581769 18.60369198 9.10220475 17.14840317 9.09681511 C15.11842703 9.08958834 13.08843016 9.08913697 11.05844116 9.08901978 C9.90246429 9.08679916 8.74648743 9.08457855 7.55548096 9.08229065 C4.86971086 9.01613454 4.86971086 9.01613454 2.83627319 10.20254517 C-0.16372681 10.39004517 -0.16372681 10.39004517 -3.16372681 10.20254517 C-5.16372681 8.20254517 -5.16372681 8.20254517 -5.41372681 5.20254517 C-5.06011095 0.95915489 -4.23595528 0.27119038 0 0 Z " fill="#F3839E" transform="translate(11.163726806640625,20.797454833984375)"/>
<path d="M0 0 C9.80546348 -0.09277329 19.61082215 -0.16380217 29.41663551 -0.20724869 C33.97013502 -0.22810333 38.52333374 -0.25638193 43.07666016 -0.30175781 C47.47277143 -0.34529168 51.86859379 -0.36915308 56.26490402 -0.37950897 C57.94022544 -0.38688684 59.61553145 -0.40129429 61.29072952 -0.42292023 C63.64159276 -0.45205544 65.99126976 -0.45595193 68.34228516 -0.45410156 C69.37591187 -0.47567322 69.37591187 -0.47567322 70.43041992 -0.49768066 C75.39744564 -0.45551458 78.17676768 0.89692594 82 4 C85.66201238 8.81843734 86.65313676 12.52537963 86.38671875 18.5703125 C85.59044056 23.57319163 83.2540568 26.7789447 79.625 30.3125 C74.74296101 33.45095364 70.84271712 34.49660358 65.01953125 33.5390625 C59.35081852 32.02594382 55.23314608 28.90959219 52 24 C48.94181534 18.49526762 49.32036106 11.92576618 51 6 C49.02 6 47.04 6 45 6 C44.91835841 8.6881249 44.85920332 11.373723 44.8125 14.0625 C44.78736328 14.81466797 44.76222656 15.56683594 44.73632812 16.34179688 C44.66658029 21.71238047 45.69951468 25.1635466 48 30 C48 30.99 48 31.98 48 33 C46.68 32.67 45.36 32.34 44 32 C43.8453125 31.071875 43.8453125 31.071875 43.6875 30.125 C43.12474627 27.63473516 43.12474627 27.63473516 40 26 C38.76346468 19.03043729 38.892475 12.06080852 39 5 C36.36 5.33 33.72 5.66 31 6 C30.67 11.61 30.34 17.22 30 23 C29.01 22.67 28.02 22.34 27 22 C25.46733418 18.93466836 25.89723529 15.73245728 25.9375 12.375 C25.94201172 11.66859375 25.94652344 10.9621875 25.95117188 10.234375 C25.96296125 8.48954725 25.98089676 6.744763 26 5 C23.36 5 20.72 5 18 5 C18 9.95 18 14.9 18 20 C16.68 20 15.36 20 14 20 C14 15.05 14 10.1 14 5 C12.72125 5.020625 11.4425 5.04125 10.125 5.0625 C6.25 5.125 6.25 5.125 4 4 C4 4.66 4 5.32 4 6 C2.68 5.67 1.36 5.34 0 5 C0 3.35 0 1.7 0 0 Z M58.1484375 8.30859375 C56.64236292 11.83813588 56.5321555 14.19040905 57 18 C59.02666238 21.70390021 60.48044516 23.65363011 64 26 C68.56051995 26.73446576 72.01911074 26.59262059 76 24.1875 C78.5930271 21.35137661 78.95288103 19.4240707 79.375 15.625 C79.32288226 11.85005616 79.32288226 11.85005616 76.625 9.125 C72.8764849 6.09048777 70.84535078 5.77573227 66.0625 5.625 C65.00160156 5.57601562 63.94070312 5.52703125 62.84765625 5.4765625 C59.81681734 5.71272479 59.81681734 5.71272479 58.1484375 8.30859375 Z " fill="#A21E41" transform="translate(9,61)"/>
<path d="M0 0 C2.24996994 0.0891977 4.50217001 0.13060723 6.75390625 0.1328125 C8.02041016 0.13410156 9.28691406 0.13539062 10.59179688 0.13671875 C11.90212891 0.13285156 13.21246094 0.12898438 14.5625 0.125 C15.87669922 0.12886719 17.19089844 0.13273437 18.54492188 0.13671875 C19.81013672 0.13542969 21.07535156 0.13414063 22.37890625 0.1328125 C24.10475952 0.13112061 24.10475952 0.13112061 25.86547852 0.12939453 C28.96178935 0.0852754 28.96178935 0.0852754 31.78881836 -0.57080078 C34 -1 34 -1 36 0 C38.48399095 0.10842966 40.94488938 0.16136212 43.4296875 0.17578125 C44.96355482 0.19901727 46.49740897 0.22313602 48.03125 0.24804688 C50.43791016 0.28285193 52.8440979 0.31232536 55.25097656 0.32592773 C71.65082282 0.43664543 83.057932 3.49376898 95.7265625 14.5 C99.69119079 18.58055309 100.2832394 23.58685278 101 29 C99.09375 29.56640625 99.09375 29.56640625 97 30 C94.79540545 28.4384122 93.77452132 26.62709295 92.375 24.3125 C90.52379839 21.52177878 88.40462137 19.20583335 86 16.875 C85.01 15.91207031 85.01 15.91207031 84 14.9296875 C74.06251237 8.53760561 63.51042293 8.45883139 52.125 8.6875 C50.64063762 8.69902556 49.15626059 8.70880051 47.671875 8.71679688 C40.13738574 8.73933991 40.13738574 8.73933991 32.66357422 9.57739258 C30 10 30 10 28 9 C25.96539191 8.90257117 23.92756346 8.86923086 21.890625 8.8671875 C20.66085938 8.86589844 19.43109375 8.86460938 18.1640625 8.86328125 C16.87242188 8.86714844 15.58078125 8.87101562 14.25 8.875 C12.97382813 8.87113281 11.69765625 8.86726563 10.3828125 8.86328125 C9.14789062 8.86457031 7.91296875 8.86585937 6.640625 8.8671875 C4.94728027 8.86887939 4.94728027 8.86887939 3.21972656 8.87060547 C-0.0286134 8.929599 -0.0286134 8.929599 -3.29785156 9.57861328 C-6 10 -6 10 -7.875 8.875 C-9.37957373 6.36737712 -9.4318188 4.87879197 -9 2 C-6.58525731 -2.02457115 -4.16658189 -0.72946732 0 0 Z " fill="#C73C5D" transform="translate(15,34)"/>
<path d="M0 0 C4.0485841 2.02429205 5.49752298 7.89933605 7.3125 11.875 C8 14 8 14 7 16 C6.86871357 18.14434495 6.76979728 20.2907167 6.6875 22.4375 C5.81202459 35.41045374 0.54224555 46.36102092 -8.8828125 55.3671875 C-19.39318406 63.47297221 -30.99331699 65.99166975 -44 65 C-47.44883321 64.25512092 -50.71116304 63.27309818 -54 62 C-54 61.67 -54 61.34 -54 61 C-52.60461746 60.94527912 -51.20859103 60.90688462 -49.8125 60.875 C-49.03519531 60.85179687 -48.25789063 60.82859375 -47.45703125 60.8046875 C-45 61 -45 61 -42.59375 62.03125 C-39.36949251 63.23549075 -37.09108489 62.99902032 -33.6875 62.625 C-32.61886719 62.51414063 -31.55023438 62.40328125 -30.44921875 62.2890625 C-29.23685547 62.14597656 -29.23685547 62.14597656 -28 62 C-28 61.01 -28 60.02 -28 59 C-29.37671875 59.01740234 -29.37671875 59.01740234 -30.78125 59.03515625 C-47.68115942 59.15942029 -47.68115942 59.15942029 -52 57 C-52 56.34 -52 55.68 -52 55 C-51.29875 55.144375 -50.5975 55.28875 -49.875 55.4375 C-37.10074755 57.93681026 -26.1686777 57.2862326 -15 50 C-8.30752067 44.07796073 -3.73055896 36.81760995 -2 28 C-1.90875326 26.12675812 -1.86994486 24.25045609 -1.875 22.375 C-1.87242188 21.41335937 -1.86984375 20.45171875 -1.8671875 19.4609375 C-1.83638917 16.99525231 -1.83638917 16.99525231 -3 15 C-3.04022391 12.6670134 -3.04320247 10.33293334 -3 8 C-1.68 7.67 -0.36 7.34 1 7 C0.505 3.535 0.505 3.535 0 0 Z " fill="#E46581" transform="translate(114,55)"/>
<path d="M0 0 C5.68850629 5.11965566 6.52184749 10.46784839 7.03125 17.86328125 C6.94458224 26.56255724 3.38130992 33.26276272 -2.375 39.625 C-9.52990351 46.09848413 -15.98174629 48.59063273 -25.56640625 48.36328125 C-32.83857804 47.59387058 -41.05625447 46.16699254 -46.21484375 40.6171875 C-47.74191156 38.11563387 -48.93103146 35.72565683 -50 33 C-50.56267578 31.6078125 -50.56267578 31.6078125 -51.13671875 30.1875 C-51.42160156 29.465625 -51.70648438 28.74375 -52 28 C-50.0625 28.75 -50.0625 28.75 -48 30 C-47.63837971 31.32594105 -47.30271961 32.65938457 -47 34 C-46.01 34.33 -45.02 34.66 -44 35 C-44.28875 34.3709375 -44.5775 33.741875 -44.875 33.09375 C-47.34310777 27.40339042 -48.45882643 23.19415679 -48 17 C-47.67 17 -47.34 17 -47 17 C-46.76925781 17.89203125 -46.53851563 18.7840625 -46.30078125 19.703125 C-45.97464844 20.87359375 -45.64851563 22.0440625 -45.3125 23.25 C-44.99925781 24.41015625 -44.68601562 25.5703125 -44.36328125 26.765625 C-42.80999753 30.45077951 -41.24631268 31.75727925 -38 34 C-37.360625 34.70125 -36.72125 35.4025 -36.0625 36.125 C-31.85954821 39.94586526 -26.85297397 40.46559437 -21.3671875 40.30859375 C-15.50572167 39.54447527 -10.67533768 37.11285853 -6.625 32.8125 C-1.48253832 26.11301521 -0.60787373 19.23465175 -1 11 C1.35119399 14.52679099 1.21443452 16.02879485 1.125 20.1875 C1.10695312 21.27417969 1.08890625 22.36085938 1.0703125 23.48046875 C1.04710937 24.31191406 1.02390625 25.14335938 1 26 C1.99 26 2.98 26 4 26 C3.91293747 23.08190419 3.80605266 20.16684289 3.6875 17.25 C3.65366211 16.0125 3.65366211 16.0125 3.61914062 14.75 C3.41398376 10.1246453 3.12758714 7.5887595 0 4 C0 2.68 0 1.36 0 0 Z " fill="#C96C85" transform="translate(101,59)"/>
<path d="M0 0 C5.68582243 1.32228429 7.7161093 3.40255302 11 8 C12.61371538 12.84114615 12.97689633 18.18611383 11.28125 23.0703125 C8.60825897 28.04983612 5.23859352 30.95532302 0.1875 33.3125 C-5.28312483 34.49243869 -9.85919515 33.82631262 -14.75 31.25 C-19.41951665 28.0172577 -22.49252171 24.52742039 -24 19 C-24.31544088 14.49485724 -24.23611273 10.36100571 -23 6 C-24.98 6 -26.96 6 -29 6 C-29.33 7.32 -29.66 8.64 -30 10 C-30 8.35 -30 6.7 -30 5 C-27.03 5 -24.06 5 -21 5 C-21.33 10.28 -21.66 15.56 -22 21 C-21.01 21 -20.02 21 -19 21 C-19.33 17.37 -19.66 13.74 -20 10 C-19.01 10 -18.02 10 -17 10 C-17 8.68 -17 7.36 -17 6 C-13.81175432 4.40587716 -10.37103338 4.89825265 -6.875 4.9375 C-6.12089844 4.94201172 -5.36679688 4.94652344 -4.58984375 4.95117188 C-2.72652873 4.96296501 -0.86325445 4.98090058 1 5 C1.33 5.66 1.66 6.32 2 7 C2.66 6.01 3.32 5.02 4 4 C2.35 3.34 0.7 2.68 -1 2 C-0.67 1.34 -0.34 0.68 0 0 Z M-15.8515625 8.30859375 C-17.35763708 11.83813588 -17.4678445 14.19040905 -17 18 C-14.97333762 21.70390021 -13.51955484 23.65363011 -10 26 C-5.43948005 26.73446576 -1.98088926 26.59262059 2 24.1875 C4.5930271 21.35137661 4.95288103 19.4240707 5.375 15.625 C5.32288226 11.85005616 5.32288226 11.85005616 2.625 9.125 C-1.1235151 6.09048777 -3.15464922 5.77573227 -7.9375 5.625 C-8.99839844 5.57601562 -10.05929688 5.52703125 -11.15234375 5.4765625 C-14.18318266 5.71272479 -14.18318266 5.71272479 -15.8515625 8.30859375 Z " fill="#D3617E" transform="translate(83,61)"/>
<path d="M0 0 C2.24996994 0.0891977 4.50217001 0.13060723 6.75390625 0.1328125 C8.02041016 0.13410156 9.28691406 0.13539062 10.59179688 0.13671875 C11.90212891 0.13285156 13.21246094 0.12898438 14.5625 0.125 C15.87669922 0.12886719 17.19089844 0.13273437 18.54492188 0.13671875 C19.81013672 0.13542969 21.07535156 0.13414063 22.37890625 0.1328125 C24.10475952 0.13112061 24.10475952 0.13112061 25.86547852 0.12939453 C28.96178935 0.0852754 28.96178935 0.0852754 31.78881836 -0.57080078 C34 -1 34 -1 36 0 C38.62380313 0.15660883 41.22524852 0.2582908 43.8515625 0.31640625 C44.62559418 0.33718735 45.39962585 0.35796844 46.19711304 0.37937927 C48.67298392 0.44483448 51.14896202 0.50374087 53.625 0.5625 C55.30209448 0.60568907 56.97917807 0.64930348 58.65625 0.69335938 C62.77072308 0.80051171 66.88530414 0.90179045 71 1 C71 1.33 71 1.66 71 2 C59.12 2.33 47.24 2.66 35 3 C35 3.66 35 4.32 35 5 C37.31 5 39.62 5 42 5 C42 5.33 42 5.66 42 6 C50.25 6.33 58.5 6.66 67 7 C67 7.33 67 7.66 67 8 C66.09233887 8.02505615 65.18467773 8.0501123 64.24951172 8.07592773 C60.86121766 8.17143059 57.47307331 8.27064084 54.08496094 8.37231445 C52.62243852 8.41545337 51.15987253 8.45714195 49.69726562 8.49731445 C47.5871064 8.5555307 45.47716225 8.61907288 43.3671875 8.68359375 C42.09987793 8.72025146 40.83256836 8.75690918 39.52685547 8.79467773 C36.01667099 8.93153979 36.01667099 8.93153979 32.66455078 9.58227539 C30 10 30 10 28 9 C25.96539191 8.90257117 23.92756346 8.86923086 21.890625 8.8671875 C20.66085938 8.86589844 19.43109375 8.86460938 18.1640625 8.86328125 C16.87242188 8.86714844 15.58078125 8.87101562 14.25 8.875 C12.97382813 8.87113281 11.69765625 8.86726563 10.3828125 8.86328125 C9.14789062 8.86457031 7.91296875 8.86585937 6.640625 8.8671875 C4.94728027 8.86887939 4.94728027 8.86887939 3.21972656 8.87060547 C-0.0286134 8.929599 -0.0286134 8.929599 -3.29785156 9.57861328 C-6 10 -6 10 -7.875 8.875 C-9.37957373 6.36737712 -9.4318188 4.87879197 -9 2 C-6.58525731 -2.02457115 -4.16658189 -0.72946732 0 0 Z " fill="#E38CA0" transform="translate(15,34)"/>
<path d="M0 0 C0.99 0.33 1.98 0.66 3 1 C3 1.66 3 2.32 3 3 C3.61617187 3.07734375 4.23234375 3.1546875 4.8671875 3.234375 C7 4 7 4 8.1953125 5.765625 C11.00258165 13.26740307 11.74810034 20.62167868 12.22900391 28.56152344 C12.58743838 33.79601934 13.41277274 37.33126413 16 42 C15.67 42.66 15.34 43.32 15 44 C14.01 44 13.02 44 12 44 C11.67 43.01 11.34 42.02 11 41 C8.57080135 40.86559222 8.57080135 40.86559222 6 42 C4.61706907 44.55518097 3.78208351 47.20866129 3 50 C2.01 50 1.02 50 0 50 C0 51.65 0 53.3 0 55 C-1.485 55.495 -1.485 55.495 -3 56 C-3.144375 56.5775 -3.28875 57.155 -3.4375 57.75 C-4.23451852 60.93807407 -5.72395056 62.66072697 -8 65 C-10.75 65.8125 -10.75 65.8125 -13 66 C-12.45472656 65.30777344 -12.45472656 65.30777344 -11.8984375 64.6015625 C-4.3742171 54.83936885 2.78123714 44.17610751 3.28125 31.48828125 C3.31863281 30.64845703 3.35601562 29.80863281 3.39453125 28.94335938 C3.46531279 27.17775312 3.53561912 25.41212775 3.60546875 23.64648438 C3.64285156 22.81052734 3.68023437 21.97457031 3.71875 21.11328125 C3.76418945 19.96533081 3.76418945 19.96533081 3.81054688 18.79418945 C4 17 4 17 5 16 C4.7834375 15.45730469 4.566875 14.91460937 4.34375 14.35546875 C4.0653125 13.64003906 3.786875 12.92460938 3.5 12.1875 C3.2215625 11.47980469 2.943125 10.77210937 2.65625 10.04296875 C2 8 2 8 2 5 C1.34 5 0.68 5 0 5 C0 3.35 0 1.7 0 0 Z " fill="#F25F7D" transform="translate(121,48)"/>
<path d="M0 0 C1.20097321 0.00141495 2.40194641 0.0028299 3.63931274 0.00428772 C7.41842299 0.00981773 11.19747063 0.02235641 14.9765625 0.03515625 C17.56249914 0.04018032 20.14843671 0.04474162 22.734375 0.04882812 C29.02345831 0.05976409 35.31250593 0.07643058 41.6015625 0.09765625 C41.6015625 1.74765625 41.6015625 3.39765625 41.6015625 5.09765625 C6.9515625 5.59265625 6.9515625 5.59265625 -28.3984375 6.09765625 C-28.3984375 5.43765625 -28.3984375 4.77765625 -28.3984375 4.09765625 C-27.7384375 3.76765625 -27.0784375 3.43765625 -26.3984375 3.09765625 C-26.7284375 2.43765625 -27.0584375 1.77765625 -27.3984375 1.09765625 C-18.24681755 0.33727547 -9.18155465 -0.04190717 0 0 Z " fill="#AB2C4C" transform="translate(42.3984375,22.90234375)"/>
<path d="M0 0 C1.31016083 0.02220612 2.62032166 0.04441223 3.97018433 0.06729126 C5.05326874 0.08148354 5.05326874 0.08148354 6.15823364 0.09596252 C8.55006924 0.12969927 10.94139269 0.17779749 13.33297729 0.22598267 C14.98920342 0.25214375 16.64544388 0.27741124 18.30169678 0.30181885 C22.66500971 0.36852921 27.02802186 0.4474089 31.39108276 0.52877808 C35.84164874 0.60964042 40.29239139 0.67905641 44.74313354 0.74942017 C53.4790251 0.88922512 62.21463213 1.04187964 70.95016479 1.20254517 C70.95016479 1.53254517 70.95016479 1.86254517 70.95016479 2.20254517 C62.0228602 2.35644066 53.09548436 2.50462134 44.16796494 2.64550877 C40.02255816 2.71110804 35.87720292 2.77867476 31.73190308 2.85073853 C27.73141107 2.92021248 23.73086631 2.98451737 19.73023224 3.0452404 C18.20399205 3.06931449 16.67778005 3.09525045 15.1516037 3.1230793 C13.01386419 3.16174143 10.8761202 3.19378041 8.73825073 3.22427368 C7.52135559 3.24425919 6.30446045 3.26424469 5.0506897 3.28483582 C2.460268 3.21608375 0.40313314 2.97878323 -2.04983521 2.20254517 C-1.71983521 3.85254517 -1.38983521 5.50254517 -1.04983521 7.20254517 C-0.05983521 7.53254517 0.93016479 7.86254517 1.95016479 8.20254517 C1.95016479 7.54254517 1.95016479 6.88254517 1.95016479 6.20254517 C5.25016479 6.53254517 8.55016479 6.86254517 11.95016479 7.20254517 C11.95016479 12.15254517 11.95016479 17.10254517 11.95016479 22.20254517 C12.61016479 22.20254517 13.27016479 22.20254517 13.95016479 22.20254517 C15.0043166 19.04008975 15.26292152 16.33306299 15.51266479 13.01504517 C15.59645386 11.92836548 15.68024292 10.84168579 15.76657104 9.72207642 C15.85744995 8.47490845 15.85744995 8.47490845 15.95016479 7.20254517 C18.59016479 7.20254517 21.23016479 7.20254517 23.95016479 7.20254517 C24.28016479 14.46254517 24.61016479 21.72254517 24.95016479 29.20254517 C20.85076489 23.05344532 21.83389144 15.34689673 21.95016479 8.20254517 C20.30016479 8.20254517 18.65016479 8.20254517 16.95016479 8.20254517 C17.25743505 11.01570875 17.57071632 13.82797036 17.88766479 16.64004517 C17.97467651 17.44248657 18.06168823 18.24492798 18.15133667 19.07168579 C18.25564874 22.95831181 18.25564874 22.95831181 19.95016479 26.20254517 C20.248438 29.03614059 20.30619073 30.64039894 18.76266479 33.07754517 C16.95016479 34.20254517 16.95016479 34.20254517 14.32516479 33.95254517 C11.95016479 33.20254517 11.95016479 33.20254517 10.95016479 32.20254517 C9.55554533 24.29970152 9.8465577 16.19180346 9.95016479 8.20254517 C8.91891479 8.53254517 7.88766479 8.86254517 6.82516479 9.20254517 C3.45012051 10.16097559 0.47631949 10.53055956 -3.04983521 10.20254517 C-5.04983521 8.20254517 -5.04983521 8.20254517 -5.29983521 5.20254517 C-4.95278893 1.03798991 -4.16987071 0.27692878 0 0 Z " fill="#D98097" transform="translate(11.049835205078125,58.797454833984375)"/>
<path d="M0 0 C18.81 0.33 37.62 0.66 57 1 C57 2.65 57 4.3 57 6 C49.50706503 6.16812194 42.01398739 6.32803173 34.52075195 6.48217773 C31.97058118 6.53561422 29.42044937 6.59094482 26.87036133 6.64819336 C23.20923262 6.73005799 19.54801875 6.80515523 15.88671875 6.87890625 C14.7428923 6.90594131 13.59906586 6.93297638 12.420578 6.96083069 C11.35970474 6.98092697 10.29883148 7.00102325 9.20581055 7.02172852 C7.80349434 7.05170677 7.80349434 7.05170677 6.37284851 7.08229065 C4 7 4 7 1 6 C0.67 4.02 0.34 2.04 0 0 Z " fill="#B22E50" transform="translate(8,48)"/>
<path d="M0 0 C1.5 2.6171875 1.5 2.6171875 3 5.875 C4.70641898 9.56335352 6.14812474 12.16383755 9 15 C9.94921875 17.26171875 9.94921875 17.26171875 10.6875 19.6875 C10.93886719 20.49574219 11.19023438 21.30398437 11.44921875 22.13671875 C11.63097656 22.75160156 11.81273438 23.36648437 12 24 C11.01 24.99 10.02 25.98 9 27 C7.66666667 26.33333333 6.33333333 25.66666667 5 25 C4.03707031 24.66548828 4.03707031 24.66548828 3.0546875 24.32421875 C0.02856498 22.37392306 -0.71086643 19.95629567 -2.125 16.6875 C-2.62257813 15.55699219 -3.12015625 14.42648438 -3.6328125 13.26171875 C-4.30957031 11.64716797 -4.30957031 11.64716797 -5 10 C-5.38671875 9.09507813 -5.7734375 8.19015625 -6.171875 7.2578125 C-7.10636997 4.70999131 -7.15387126 2.69274709 -7 0 C-3.98968256 -0.93423645 -3.13349732 -1.04449911 0 0 Z " fill="#B85570" transform="translate(32,94)"/>
<path d="M0 0 C0.46148437 0.37511719 0.92296875 0.75023438 1.3984375 1.13671875 C11.64297715 9.17443069 21.47124125 13.36012651 34.5 13.1875 C35.42425781 13.18685547 36.34851563 13.18621094 37.30078125 13.18554688 C41.97367401 13.15546387 46.40531948 12.95722511 51 12 C50.34 13.32 49.68 14.64 49 16 C40.09 16 31.18 16 22 16 C21.67 17.32 21.34 18.64 21 20 C16.97855708 18.62121957 14.26938665 16.68257366 11 14 C10.29875 13.649375 9.5975 13.29875 8.875 12.9375 C6.81725326 11.90862663 5.53879226 10.69267149 4 9 C3.01 9.33 2.02 9.66 1 10 C1.20625 9.278125 1.4125 8.55625 1.625 7.8125 C2.05952211 4.55358415 1.41680669 2.91695496 0 0 Z M-6 7 C-5.38125 7.350625 -4.7625 7.70125 -4.125 8.0625 C-3.42375 8.371875 -2.7225 8.68125 -2 9 C-1.34 8.67 -0.68 8.34 0 8 C1.125 14.75 1.125 14.75 0 17 C-1.00578589 15.71283353 -2.00446798 14.42011342 -3 13.125 C-3.556875 12.40570313 -4.11375 11.68640625 -4.6875 10.9453125 C-6 9 -6 9 -6 7 Z " fill="#D53359" transform="translate(41,111)"/>
<path d="M0 0 C4.42253466 0.54171958 8.88397321 0.40835951 13.33325195 0.3994751 C14.39435181 0.40043182 15.45545166 0.40138855 16.54870605 0.40237427 C18.78434305 0.40305248 21.01998206 0.40122329 23.25561523 0.39703369 C26.66565398 0.39168041 30.07556102 0.39699091 33.4855957 0.40338135 C35.66398141 0.4027205 37.84236703 0.40143921 40.02075195 0.3994751 C41.54134216 0.40251144 41.54134216 0.40251144 43.09265137 0.40560913 C47.20199779 0.39208643 51.18639574 0.34784206 55.24926758 -0.30413818 C58.17700195 -0.7333374 58.17700195 -0.7333374 60.17700195 0.2666626 C62.04756987 0.4941641 63.92386153 0.6762907 65.80200195 0.8291626 C66.80489258 0.91295166 67.8077832 0.99674072 68.84106445 1.08306885 C69.61192383 1.14365479 70.3827832 1.20424072 71.17700195 1.2666626 C71.17700195 1.5966626 71.17700195 1.9266626 71.17700195 2.2666626 C69.73067383 2.19705322 69.73067383 2.19705322 68.25512695 2.1260376 C66.9918457 2.08994385 65.72856445 2.0538501 64.42700195 2.0166626 C63.1740332 1.97025635 61.92106445 1.9238501 60.63012695 1.8760376 C57.12283809 1.97112232 57.12283809 1.97112232 54.72387695 4.1572876 C52.97988073 6.09950156 52.97988073 6.09950156 53.17700195 8.2666626 C54.82700195 8.2666626 56.47700195 8.2666626 58.17700195 8.2666626 C57.84700195 8.9266626 57.51700195 9.5866626 57.17700195 10.2666626 C56.4605249 10.10433136 55.74404785 9.94200012 55.00585938 9.77474976 C52.23705737 9.27744907 49.72466238 9.1397582 46.9152832 9.13726807 C45.89072021 9.13411591 44.86615723 9.13096375 43.81054688 9.12771606 C42.16662964 9.13075241 42.16662964 9.13075241 40.48950195 9.1338501 C39.35424072 9.13289337 38.21897949 9.13193665 37.04931641 9.13095093 C34.65209904 9.13027126 32.25487983 9.13211069 29.85766602 9.1362915 C26.19063173 9.14164271 22.52371993 9.13633926 18.85668945 9.12994385 C16.52596002 9.13060467 14.19523066 9.13188591 11.86450195 9.1338501 C10.76855713 9.13182587 9.6726123 9.12980164 8.54345703 9.12771606 C7.00661255 9.13244431 7.00661255 9.13244431 5.4387207 9.13726807 C4.09233521 9.13846146 4.09233521 9.13846146 2.71875 9.13967896 C0.13079922 9.20236974 0.13079922 9.20236974 -2.53466797 9.83724976 C-4.82299805 10.2666626 -4.82299805 10.2666626 -6.69799805 9.2666626 C-8.47349749 6.11021914 -7.64368413 3.67566635 -6.82299805 0.2666626 C-4.28540629 -1.00213328 -2.71961915 -0.43642478 0 0 Z M-5.82299805 1.2666626 C-5.49299805 3.2466626 -5.16299805 5.2266626 -4.82299805 7.2666626 C-1.3227432 8.07027108 1.8393124 8.36849686 5.42626953 8.28839111 C6.44695023 8.26829483 7.46763092 8.24819855 8.51924133 8.22749329 C10.15387581 8.18694069 10.15387581 8.18694069 11.8215332 8.14556885 C13.50891853 8.11015236 13.50891853 8.11015236 15.23039246 8.07402039 C18.81689628 7.99755941 22.40317458 7.91345918 25.98950195 7.8291626 C28.42373578 7.77592435 30.85798055 7.72318407 33.29223633 7.67095947 C39.25396385 7.54196802 45.21552439 7.40670709 51.17700195 7.2666626 C51.17700195 5.6166626 51.17700195 3.9666626 51.17700195 2.2666626 C32.36700195 1.9366626 13.55700195 1.6066626 -5.82299805 1.2666626 Z " fill="#E296A8" transform="translate(13.822998046875,46.73333740234375)"/>
<path d="M0 0 C11.22 0.33 22.44 0.66 34 1 C34 2.65 34 4.3 34 6 C22.78 6 11.56 6 0 6 C0 4.02 0 2.04 0 0 Z " fill="#C42E53" transform="translate(9,35)"/>
<path d="M0 0 C0.94875 0.04125 1.8975 0.0825 2.875 0.125 C2.875 0.785 2.875 1.445 2.875 2.125 C7.825 2.125 12.775 2.125 17.875 2.125 C17.875 2.455 17.875 2.785 17.875 3.125 C17.02035156 3.17398437 16.16570313 3.22296875 15.28515625 3.2734375 C14.18042969 3.34820313 13.07570313 3.42296875 11.9375 3.5 C10.83535156 3.56960937 9.73320312 3.63921875 8.59765625 3.7109375 C7.69917969 3.84757812 6.80070312 3.98421875 5.875 4.125 C5.545 4.785 5.215 5.445 4.875 6.125 C4.545 6.455 4.215 6.785 3.875 7.125 C26.645 7.125 49.415 7.125 72.875 7.125 C72.875 7.785 72.875 8.445 72.875 9.125 C72.02753204 9.12277939 71.18006409 9.12055878 70.30691528 9.11827087 C62.33138957 9.09825739 54.35587225 9.08302045 46.38032722 9.07318783 C42.27974504 9.06796291 38.17918355 9.06087232 34.07861328 9.04956055 C30.12345043 9.03871782 26.16830752 9.03272021 22.21313095 9.03012276 C20.70201173 9.02827102 19.19089363 9.02465518 17.67978287 9.01926994 C15.56791042 9.01204114 13.45612105 9.01100984 11.34423828 9.01147461 C10.14066681 9.009254 8.93709534 9.00703339 7.697052 9.00474548 C4.92372835 8.9303321 4.92372835 8.9303321 2.875 10.125 C-0.125 10.3125 -0.125 10.3125 -3.125 10.125 C-5.125 8.125 -5.125 8.125 -5.375 5.125 C-5.02345647 0.90647769 -4.22997422 0.16919897 0 0 Z " fill="#D3617B" transform="translate(11.125,20.875)"/>
<path d="M0 0 C14.85 0 29.7 0 45 0 C45 0.33 45 0.66 45 1 C43.02 1.33 41.04 1.66 39 2 C39.66 2.66 40.32 3.32 41 4 C20.21 4.495 20.21 4.495 -1 5 C-1 4.34 -1 3.68 -1 3 C-0.34 2.67 0.32 2.34 1 2 C0.67 1.34 0.34 0.68 0 0 Z " fill="#BD294E" transform="translate(15,24)"/>
<path d="M0 0 C0 0.66 0 1.32 0 2 C-1.98 2.33 -3.96 2.66 -6 3 C-5.505 3.99 -5.505 3.99 -5 5 C-6.32 5 -7.64 5 -9 5 C-9 5.66 -9 6.32 -9 7 C-10.65 7 -12.3 7 -14 7 C-14 7.99 -14 8.98 -14 10 C-23.14354394 12.79260948 -33.24617281 11.38857827 -42 8 C-42 7.67 -42 7.34 -42 7 C-40.60461746 6.94527912 -39.20859103 6.90688462 -37.8125 6.875 C-37.03519531 6.85179688 -36.25789063 6.82859375 -35.45703125 6.8046875 C-33 7 -33 7 -30.59375 8.03125 C-27.36949251 9.23549075 -25.09108489 8.99902032 -21.6875 8.625 C-20.61886719 8.51414062 -19.55023438 8.40328125 -18.44921875 8.2890625 C-17.23685547 8.14597656 -17.23685547 8.14597656 -16 8 C-16 7.01 -16 6.02 -16 5 C-17.37671875 5.01740234 -17.37671875 5.01740234 -18.78125 5.03515625 C-35.68115942 5.15942029 -35.68115942 5.15942029 -40 3 C-40 2.34 -40 1.68 -40 1 C-39.29875 1.144375 -38.5975 1.28875 -37.875 1.4375 C-28.25661336 3.31935826 -19.64035235 4.15416737 -10.5 -0.1875 C-6.78145179 -1.39602817 -3.8339787 -0.6498269 0 0 Z " fill="#DD6D87" transform="translate(102,109)"/>
<path d="M0 0 C6.875 0.875 6.875 0.875 8 2 C7.94594167 3.85813741 7.81838247 5.71422878 7.66015625 7.56640625 C7.56669922 8.69111328 7.47324219 9.81582031 7.37695312 10.97460938 C7.27318359 12.15861328 7.16941406 13.34261719 7.0625 14.5625 C6.96259766 15.75037109 6.86269531 16.93824219 6.75976562 18.16210938 C6.51127391 21.10851111 6.25779913 24.05440039 6 27 C5.34 27 4.68 27 4 27 C4 27.99 4 28.98 4 30 C3.34 30 2.68 30 2 30 C1.97494385 29.37432129 1.9498877 28.74864258 1.92407227 28.10400391 C1.80824727 25.27745381 1.68546015 22.45124831 1.5625 19.625 C1.52318359 18.64015625 1.48386719 17.6553125 1.44335938 16.640625 C1.40146484 15.69960937 1.35957031 14.75859375 1.31640625 13.7890625 C1.27974854 12.91975098 1.24309082 12.05043945 1.20532227 11.15478516 C1.12598456 8.9516738 1.12598456 8.9516738 0 7 C-0.04022391 4.6670134 -0.04320247 2.33293334 0 0 Z " fill="#EE4B6E" transform="translate(111,63)"/>
<path d="M0 0 C1.31016083 0.02220612 2.62032166 0.04441223 3.97018433 0.06729126 C5.05326874 0.08148354 5.05326874 0.08148354 6.15823364 0.09596252 C8.55006924 0.12969927 10.94139269 0.17779749 13.33297729 0.22598267 C14.98920342 0.25214375 16.64544388 0.27741124 18.30169678 0.30181885 C22.66500971 0.36852921 27.02802186 0.4474089 31.39108276 0.52877808 C35.84164874 0.60964042 40.29239139 0.67905641 44.74313354 0.74942017 C53.4790251 0.88922512 62.21463213 1.04187964 70.95016479 1.20254517 C70.95016479 1.53254517 70.95016479 1.86254517 70.95016479 2.20254517 C62.0228602 2.35644066 53.09548436 2.50462134 44.16796494 2.64550877 C40.02255816 2.71110804 35.87720292 2.77867476 31.73190308 2.85073853 C27.73141107 2.92021248 23.73086631 2.98451737 19.73023224 3.0452404 C18.20399205 3.06931449 16.67778005 3.09525045 15.1516037 3.1230793 C13.01386419 3.16174143 10.8761202 3.19378041 8.73825073 3.22427368 C7.52135559 3.24425919 6.30446045 3.26424469 5.0506897 3.28483582 C2.460268 3.21608375 0.40313314 2.97878323 -2.04983521 2.20254517 C-1.71983521 3.85254517 -1.38983521 5.50254517 -1.04983521 7.20254517 C-0.05983521 7.53254517 0.93016479 7.86254517 1.95016479 8.20254517 C1.95016479 7.54254517 1.95016479 6.88254517 1.95016479 6.20254517 C5.25016479 6.53254517 8.55016479 6.86254517 11.95016479 7.20254517 C11.95016479 11.16254517 11.95016479 15.12254517 11.95016479 19.20254517 C11.62016479 19.20254517 11.29016479 19.20254517 10.95016479 19.20254517 C10.95016479 15.57254517 10.95016479 11.94254517 10.95016479 8.20254517 C6.60832277 8.38718883 6.60832277 8.38718883 2.95016479 10.20254517 C0.01266479 10.39004517 0.01266479 10.39004517 -3.04983521 10.20254517 C-5.04983521 8.20254517 -5.04983521 8.20254517 -5.29983521 5.20254517 C-4.95278893 1.03798991 -4.16987071 0.27692878 0 0 Z " fill="#DA849C" transform="translate(11.049835205078125,58.797454833984375)"/>
<path d="M0 0 C1.45947705 0.06006078 2.91779272 0.1488689 4.375 0.25 C5.59316406 0.31960937 5.59316406 0.31960937 6.8359375 0.390625 C7.55007812 0.59171875 8.26421875 0.7928125 9 1 C10.13525391 3.03808594 10.13525391 3.03808594 11 5 C11.65597168 4.98952637 12.31194336 4.97905273 12.98779297 4.96826172 C15.95015658 4.92677497 18.91245916 4.90069738 21.875 4.875 C22.90753906 4.85824219 23.94007812 4.84148437 25.00390625 4.82421875 C25.99003906 4.81777344 26.97617188 4.81132813 27.9921875 4.8046875 C29.35899658 4.78897705 29.35899658 4.78897705 30.75341797 4.77294922 C33 5 33 5 35 7 C34.34 7 33.68 7 33 7 C33 7.66 33 8.32 33 9 C27.05843378 10.77204606 21.86167229 11.93083614 16 9 C14.46331135 8.77532169 12.92031946 8.59203195 11.375 8.4375 C10.55773438 8.35371094 9.74046875 8.26992187 8.8984375 8.18359375 C8.27195312 8.12300781 7.64546875 8.06242187 7 8 C7 7.34 7 6.68 7 6 C6.401875 5.71125 5.80375 5.4225 5.1875 5.125 C3 4 3 4 0 2 C0 1.34 0 0.68 0 0 Z " fill="#CF3156" transform="translate(53,108)"/>
<path d="M0 0 C0.80244141 0.04060547 1.60488281 0.08121094 2.43164062 0.12304688 C6.76118159 0.42126422 9.72798615 0.72798615 12.9375 3.9375 C11.2875 4.5975 9.6375 5.2575 7.9375 5.9375 C7.9375 4.9475 7.9375 3.9575 7.9375 2.9375 C7.2775 2.9375 6.6175 2.9375 5.9375 2.9375 C5.6075 3.9275 5.2775 4.9175 4.9375 5.9375 C6.2575 6.5975 7.5775 7.2575 8.9375 7.9375 C7.9475 8.4325 7.9475 8.4325 6.9375 8.9375 C5.9475 8.6075 4.9575 8.2775 3.9375 7.9375 C2.60386297 7.79346652 1.26531954 7.69159577 -0.07421875 7.62109375 C-0.83154297 7.57919922 -1.58886719 7.53730469 -2.36914062 7.49414062 C-3.54766602 7.43516602 -3.54766602 7.43516602 -4.75 7.375 C-5.54728516 7.33181641 -6.34457031 7.28863281 -7.16601562 7.24414062 C-9.13131447 7.13822632 -11.09688496 7.03737449 -13.0625 6.9375 C-13.3925 5.9475 -13.7225 4.9575 -14.0625 3.9375 C-9.55315255 -0.73582372 -6.06277834 -0.51379477 0 0 Z " fill="#D55777" transform="translate(80.0625,48.0625)"/>
<path d="M0 0 C2.87575868 0.11454804 5.75012112 0.2412847 8.625 0.375 C9.83736328 0.42140625 9.83736328 0.42140625 11.07421875 0.46875 C15.71838314 0.6952946 19.62693856 1.2592668 24 3 C24 3.33 24 3.66 24 4 C21.69 4 19.38 4 17 4 C17.495 11.92 17.495 11.92 18 20 C16.68 20 15.36 20 14 20 C14 15.05 14 10.1 14 5 C12.72125 5.020625 11.4425 5.04125 10.125 5.0625 C6.25 5.125 6.25 5.125 4 4 C4 4.66 4 5.32 4 6 C2.68 5.67 1.36 5.34 0 5 C0 3.35 0 1.7 0 0 Z " fill="#B72148" transform="translate(9,61)"/>
<path d="M0 0 C2.97 0 5.94 0 9 0 C8.67 5.28 8.34 10.56 8 16 C8.99 16 9.98 16 11 16 C10.67 12.37 10.34 8.74 10 5 C10.99 5 11.98 5 13 5 C13 3.68 13 2.36 13 1 C16.18824568 -0.59412284 19.62896662 -0.10174735 23.125 -0.0625 C23.87910156 -0.05798828 24.63320312 -0.05347656 25.41015625 -0.04882812 C27.27347127 -0.03703499 29.13674555 -0.01909942 31 0 C31.33 0.99 31.66 1.98 32 3 C31.46890625 2.83628906 30.9378125 2.67257813 30.390625 2.50390625 C27.46123236 1.88643623 24.74177064 1.90498075 21.75 1.9375 C20.13351563 1.95103516 20.13351563 1.95103516 18.484375 1.96484375 C17.25460938 1.98224609 17.25460938 1.98224609 16 2 C13.70829015 5.63231482 13.76282176 8.70581756 13.8125 12.9375 C13.81894531 14.14277344 13.82539062 15.34804687 13.83203125 16.58984375 C13.97630208 19.51887709 14.32501764 22.15427436 15 25 C10.78220697 23.49364535 9.2252326 20.75987578 7 17 C6.06750386 14.20251159 5.86523848 12.45679119 5.875 9.5625 C5.87242188 8.80066406 5.86984375 8.03882812 5.8671875 7.25390625 C5.99723985 5.04684141 6.39143801 3.12030724 7 1 C5.02 1 3.04 1 1 1 C0.67 2.32 0.34 3.64 0 5 C0 3.35 0 1.7 0 0 Z " fill="#CB6F87" transform="translate(53,66)"/>
<path d="M0 0 C4.01100822 0.18655852 5.70608568 0.73948503 8.75 3.4375 C11.79752562 7.44533916 12.35328798 12.11587641 13 17 C11.1875 17.6875 11.1875 17.6875 9 18 C5.87695931 15.81065189 4.16327814 12.22569207 2.25 9 C1.61578125 7.948125 0.9815625 6.89625 0.328125 5.8125 C-1 3 -1 3 0 0 Z " fill="#B3506A" transform="translate(103,46)"/>
<path d="M0 0 C5.68908305 5.12017475 6.51611529 10.46531785 7.03515625 17.859375 C6.96191051 24.40266076 4.88418591 30.70338286 1 36 C0.67 36 0.34 36 0 36 C0 34.02 0 32.04 0 30 C0.66 30 1.32 30 2 30 C1.67 28.68 1.34 27.36 1 26 C1.99 26 2.98 26 4 26 C3.91293747 23.08190419 3.80605266 20.16684289 3.6875 17.25 C3.66494141 16.425 3.64238281 15.6 3.61914062 14.75 C3.41398376 10.1246453 3.12758714 7.5887595 0 4 C0 2.68 0 1.36 0 0 Z M-1 11 C1.49118953 14.7367843 1.2065226 16.74451819 1.125 21.1875 C1.10695313 22.45980469 1.08890625 23.73210937 1.0703125 25.04296875 C1.03550781 26.50669922 1.03550781 26.50669922 1 28 C0.34 28 -0.32 28 -1 28 C-1 28.66 -1 29.32 -1 30 C-1.99 30.33 -2.98 30.66 -4 31 C-3.7834375 30.31035156 -3.566875 29.62070313 -3.34375 28.91015625 C-1.50372836 22.7000832 -0.68181715 17.46971792 -1 11 Z " fill="#D26F88" transform="translate(101,59)"/>
<path d="M0 0 C0.99 0.495 0.99 0.495 2 1 C2.33 0.67 2.66 0.34 3 0 C3.66 0 4.32 0 5 0 C5.03738281 1.14597656 5.07476562 2.29195313 5.11328125 3.47265625 C5.17898584 5.00263446 5.24543159 6.53258097 5.3125 8.0625 C5.33505859 8.81466797 5.35761719 9.56683594 5.38085938 10.34179688 C5.63055197 15.58534127 6.78938136 19.25280019 9 24 C9 24.99 9 25.98 9 27 C7.68 26.67 6.36 26.34 5 26 C4.896875 25.38125 4.79375 24.7625 4.6875 24.125 C4.12474627 21.63473516 4.12474627 21.63473516 1 20 C-0.16148471 13.3478603 -0.11334109 6.73749798 0 0 Z " fill="#A52649" transform="translate(48,67)"/>
<path d="M0 0 C4.76035509 0.39267763 7.85125402 1.8309893 11.8125 4.4375 C12.76769531 5.05496094 13.72289063 5.67242187 14.70703125 6.30859375 C17 8 17 8 18 10 C16.35 10 14.7 10 13 10 C13.66 12.31 14.32 14.62 15 17 C14.52691406 16.61328125 14.05382812 16.2265625 13.56640625 15.828125 C8.66095713 11.96496429 3.80389455 9.28393999 -2 7 C-0.68 5.68 0.64 4.36 2 3 C1.01 2.34 0.02 1.68 -1 1 C-0.67 0.67 -0.34 0.34 0 0 Z " fill="#BC4665" transform="translate(90,37)"/>
<path d="M0 0 C4.32535166 1.00589574 7.31412296 2.43778213 10.09765625 6.00390625 C11.9441775 10.08863508 11.35035416 14.62446579 11 19 C9.68 19.33 8.36 19.66 7 20 C6.54625 18.7625 6.0925 17.525 5.625 16.25 C4.76891056 13.92340286 3.93968297 11.89659938 2.6875 9.75 C2 8 2 8 2.875 5.75 C3.431875 4.88375 3.431875 4.88375 4 4 C1.525 3.01 1.525 3.01 -1 2 C-0.67 1.34 -0.34 0.68 0 0 Z " fill="#D64F71" transform="translate(83,61)"/>
<path d="M0 0 C0.33 0 0.66 0 1 0 C1.23074219 0.89203125 1.46148437 1.7840625 1.69921875 2.703125 C2.02535156 3.87359375 2.35148437 5.0440625 2.6875 6.25 C3.00074219 7.41015625 3.31398438 8.5703125 3.63671875 9.765625 C5.19254623 13.45681456 6.74202248 14.76014045 10 17 C11.35147138 18.31494512 12.69112542 19.64264858 14 21 C13.01 21.33 12.02 21.66 11 22 C8.3125 20.5625 8.3125 20.5625 6 19 C5.34 20.32 4.68 21.64 4 23 C5.98 23.66 7.96 24.32 10 25 C10 25.66 10 26.32 10 27 C7.375 27.125 7.375 27.125 4 26 C0.43829205 21.4684373 -1.9555178 16.36194389 -4 11 C-2.0625 11.75 -2.0625 11.75 0 13 C0.36162029 14.32594105 0.69728039 15.65938457 1 17 C1.99 17.33 2.98 17.66 4 18 C3.71125 17.3709375 3.4225 16.741875 3.125 16.09375 C0.65689223 10.40339042 -0.45882643 6.19415679 0 0 Z " fill="#C2667E" transform="translate(53,76)"/>
<path d="M0 0 C6.48880597 6.31343284 6.48880597 6.31343284 8 9 C7.79657436 12.2591103 7.45901654 13.59290564 4.98413086 15.7878418 C4.17339111 16.35672119 3.36265137 16.92560059 2.52734375 17.51171875 C-1.42755998 20.84781203 -2.68068337 22.99153319 -3.24609375 28.14453125 C-3.35260799 30.36555044 -3.4155876 32.58903618 -3.4375 34.8125 C-3.51266763 37.04841837 -3.59439068 39.28412883 -3.68359375 41.51953125 C-3.69962646 42.50026611 -3.71565918 43.48100098 -3.73217773 44.49145508 C-4 47 -4 47 -6 50 C-5.73896069 45.90620455 -5.47231416 41.8128171 -5.20043945 37.71972656 C-5.10872227 36.32692398 -5.01854468 34.93401914 -4.92993164 33.54101562 C-4.80238058 31.5401029 -4.6688538 29.53957392 -4.53515625 27.5390625 C-4.456604 26.33459473 -4.37805176 25.13012695 -4.29711914 23.88916016 C-4 21 -4 21 -3 19 C-2.01 19 -1.02 19 0 19 C-0.33 18.01 -0.66 17.02 -1 16 C-0.01 16 0.98 16 2 16 C2 14.68 2 13.36 2 12 C3.32 12 4.64 12 6 12 C6 11.01 6 10.02 6 9 C5.01 9 4.02 9 3 9 C1.35173889 6.03312999 0.55728913 3.34373475 0 0 Z " fill="#EC91A4" transform="translate(137,92)"/>
<path d="M0 0 C2.43356373 4.32633551 2.59810836 9.14557204 3 14 C0.69 13.67 -1.62 13.34 -4 13 C-7.42857143 4.57142857 -7.42857143 4.57142857 -7 0 C-3.98968256 -0.93423645 -3.13349732 -1.04449911 0 0 Z " fill="#B04964" transform="translate(32,94)"/>
<path d="M0 0 C4.0485841 2.02429205 5.49752298 7.89933605 7.3125 11.875 C8 14 8 14 7 16 C6.86871357 18.14434495 6.76979728 20.2907167 6.6875 22.4375 C6.14204262 30.86178621 4.37053521 38.34053634 -1 45 C-1.17942163 41.05272412 -1.09350689 38.4019487 1 35 C1.66 35 2.32 35 3 35 C2.98839844 34.36835937 2.97679688 33.73671875 2.96484375 33.0859375 C2.8868191 25.35035081 3.36988506 17.70765594 4 10 C2.68 9.34 1.36 8.68 0 8 C0.33 7.67 0.66 7.34 1 7 C0.71269945 4.66055264 0.38063221 2.3260857 0 0 Z " fill="#E26E88" transform="translate(114,55)"/>
<path d="M0 0 C8.67254919 0.60297309 17.33850205 1.25441318 26 2 C26 2.66 26 3.32 26 4 C22.75031669 5.62484165 19.14078833 5.34043966 15.5625 5.5 C9.69735037 5.70132605 9.69735037 5.70132605 4 7 C3.01 6.67 2.02 6.34 1 6 C0.67 4.02 0.34 2.04 0 0 Z " fill="#CE2A52" transform="translate(8,48)"/>
<path d="M0 0 C19.47 0 38.94 0 59 0 C59 0.33 59 0.66 59 1 C46.13 1.33 33.26 1.66 20 2 C20 2.99 20 3.98 20 5 C17.69 5 15.38 5 13 5 C13 8.63 13 12.26 13 16 C12.67 16 12.34 16 12 16 C12 12.04 12 8.08 12 4 C13.65 3.67 15.3 3.34 17 3 C13.43928688 1.95117609 9.94472103 1.69613047 6.25 1.4375 C5.07953125 1.35371094 3.9090625 1.26992188 2.703125 1.18359375 C1.81109375 1.12300781 0.9190625 1.06242187 0 1 C0 0.67 0 0.34 0 0 Z " fill="#9F2D4C" transform="translate(14,61)"/>
<path d="M0 0 C0.66 0.66 1.32 1.32 2 2 C1.01 3.32 0.02 4.64 -1 6 C-1.33 5.01 -1.66 4.02 -2 3 C-10.415 3.495 -10.415 3.495 -19 4 C-18.67 2.68 -18.34 1.36 -18 0 C-18.66 -0.33 -19.32 -0.66 -20 -1 C-5.32758621 -3.55172414 -5.32758621 -3.55172414 0 0 Z " fill="#AC294B" transform="translate(86,63)"/>
<path d="M0 0 C0.33 0.99 0.66 1.98 1 3 C0.34 3 -0.32 3 -1 3 C-1 4.98 -1 6.96 -1 9 C-2.98 9.33 -4.96 9.66 -7 10 C-7 10.99 -7 11.98 -7 13 C-7.66 13 -8.32 13 -9 13 C-9 13.66 -9 14.32 -9 15 C-11.90600261 16.25664978 -13.79604584 17 -17 17 C-17 15 -17 15 -15 12.8125 C-14.00969821 11.86476132 -13.00814056 10.92874047 -12 10 C-11.32582031 9.37867187 -10.65164062 8.75734375 -9.95703125 8.1171875 C-4.2701164 3 -4.2701164 3 -2 3 C-2 2.34 -2 1.68 -2 1 C-1.34 0.67 -0.68 0.34 0 0 Z " fill="#C63F61" transform="translate(102,86)"/>
<path d="M0 0 C1.98 0.66 3.96 1.32 6 2 C6 2.66 6 3.32 6 4 C6.721875 4.103125 7.44375 4.20625 8.1875 4.3125 C11.24491993 5.05986932 13.38329635 6.28045189 16 8 C15.67 8.99 15.34 9.98 15 11 C12.03 10.67 9.06 10.34 6 10 C5.67 9.01 5.34 8.02 5 7 C3.06381575 6.32843384 3.06381575 6.32843384 1 6 C0.34 5.67 -0.32 5.34 -1 5 C-0.67 3.35 -0.34 1.7 0 0 Z " fill="#AE2146" transform="translate(58,94)"/>
<path d="M0 0 C6.93 0 13.86 0 21 0 C20.67 0.99 20.34 1.98 20 3 C17.34081834 3.88639389 15.51935359 4.17989025 12.76953125 4.31640625 C11.96708984 4.35830078 11.16464844 4.40019531 10.33789062 4.44335938 C9.50451172 4.48267578 8.67113281 4.52199219 7.8125 4.5625 C6.96751953 4.60568359 6.12253906 4.64886719 5.25195312 4.69335938 C3.16815567 4.79931518 1.08409897 4.9001502 -1 5 C-1 4.34 -1 3.68 -1 3 C-0.34 2.67 0.32 2.34 1 2 C0.67 1.34 0.34 0.68 0 0 Z " fill="#D22F56" transform="translate(15,24)"/>
<path d="M0 0 C1.20090523 0.03025772 1.20090523 0.03025772 2.42607117 0.06112671 C3.28553848 0.09332306 4.1450058 0.12551941 5.03051758 0.15869141 C6.35591301 0.19623032 6.35591301 0.19623032 7.70808411 0.23452759 C10.53079682 0.31671239 13.35280827 0.41330763 16.17504883 0.51025391 C18.08843162 0.56849503 20.00184321 0.62579828 21.9152832 0.68212891 C26.60644189 0.82228896 31.29702245 0.97537473 35.98754883 1.13525391 C35.98754883 1.46525391 35.98754883 1.79525391 35.98754883 2.13525391 C35.19171387 2.16031006 34.39587891 2.18536621 33.57592773 2.21118164 C29.92134715 2.32822376 26.26695708 2.45045353 22.61254883 2.57275391 C21.36086914 2.61207031 20.10918945 2.65138672 18.81958008 2.69189453 C6.58738125 2.08010012 6.58738125 2.08010012 -4.01245117 6.13525391 C-5.33245117 6.13525391 -6.65245117 6.13525391 -8.01245117 6.13525391 C-7.69995117 4.26025391 -7.69995117 4.26025391 -7.01245117 2.13525391 C-3.93467834 0.08340535 -3.43893552 -0.10848377 0 0 Z " fill="#DF6582" transform="translate(50.012451171875,33.86474609375)"/>
<path d="M0 0 C5.57142857 5.14285714 5.57142857 5.14285714 6 9 C2.96101874 7.98700625 1.87860833 7.5048111 0 5 C-0.1875 2.3125 -0.1875 2.3125 0 0 Z M-6 3 C-4.02 3.66 -2.04 4.32 0 5 C0 6.65 0 8.3 0 10 C0.66 10 1.32 10 2 10 C2.69670416 11.78810766 3.38211189 13.58062052 4.0625 15.375 C4.44535156 16.37273438 4.82820313 17.37046875 5.22265625 18.3984375 C6 21 6 21 5 23 C4.34 23 3.68 23 3 23 C2.76925781 22.31035156 2.53851563 21.62070313 2.30078125 20.91015625 C0.09046805 14.54130913 -2.52143585 8.77384622 -6 3 Z " fill="#EB7A94" transform="translate(121,43)"/>
<path d="M0 0 C0.33 0 0.66 0 1 0 C1 3.3 1 6.6 1 10 C1.66 10 2.32 10 3 10 C2.57630928 11.6286551 2.1355377 13.25287378 1.6875 14.875 C1.44386719 15.77992187 1.20023437 16.68484375 0.94921875 17.6171875 C0 20 0 20 -3 22 C-4.91651133 16.60981187 -5.52751566 13.76447254 -3.0625 8.5625 C-1.72062057 5.72002421 -0.66568463 3.07616371 0 0 Z " fill="#EA6583" transform="translate(112,83)"/>
<path d="M0 0 C1.27310312 0.93441535 2.543388 1.87267111 3.8125 2.8125 C4.52019531 3.33457031 5.22789063 3.85664062 5.95703125 4.39453125 C7.78531393 5.83128877 9.39896688 7.31815763 11 9 C8.69 8.67 6.38 8.34 4 8 C4 8.66 4 9.32 4 10 C4.8971875 10.433125 4.8971875 10.433125 5.8125 10.875 C8 12 8 12 11 14 C11 14.66 11 15.32 11 16 C4.95566426 14.64002446 1.36505864 11.14348206 -3 7 C-2.34 6.67 -1.68 6.34 -1 6 C-0.01 6.33 0.98 6.66 2 7 C1.67 6.401875 1.34 5.80375 1 5.1875 C0 3 0 3 0 0 Z " fill="#CD647D" transform="translate(49,100)"/>
<path d="M0 0 C0.51949219 0.39832031 1.03898437 0.79664062 1.57421875 1.20703125 C5.27926842 4.02177323 8.93575065 6.71385974 13 9 C9.63181477 10.12272841 7.42845528 9.70327288 4 9 C3.01 9.33 2.02 9.66 1 10 C1.20625 9.278125 1.4125 8.55625 1.625 7.8125 C2.05952211 4.55358415 1.41680669 2.91695496 0 0 Z M-6 7 C-5.38125 7.350625 -4.7625 7.70125 -4.125 8.0625 C-3.42375 8.371875 -2.7225 8.68125 -2 9 C-1.34 8.67 -0.68 8.34 0 8 C1.125 14.75 1.125 14.75 0 17 C-1.00578589 15.71283353 -2.00446798 14.42011342 -3 13.125 C-3.556875 12.40570313 -4.11375 11.68640625 -4.6875 10.9453125 C-6 9 -6 9 -6 7 Z " fill="#CE4C6E" transform="translate(41,111)"/>
<path d="M0 0 C3.3 0.66 6.6 1.32 10 2 C10 2.33 10 2.66 10 3 C18.25 3.33 26.5 3.66 35 4 C35 4.33 35 4.66 35 5 C34.09233887 5.02505615 33.18467773 5.0501123 32.24951172 5.07592773 C28.86121766 5.17143059 25.47307331 5.27064084 22.08496094 5.37231445 C20.62243852 5.41545337 19.15987253 5.45714195 17.69726562 5.49731445 C15.5871064 5.5555307 13.47716225 5.61907288 11.3671875 5.68359375 C10.09987793 5.72025146 8.83256836 5.75690918 7.52685547 5.79467773 C4.27980984 5.98371036 1.19301052 6.3962073 -2 7 C-2.66 5.68 -3.32 4.36 -4 3 C-3.01 2.67 -2.02 2.34 -1 2 C-0.67 1.34 -0.34 0.68 0 0 Z " fill="#EA7895" transform="translate(47,37)"/>
<path d="M0 0 C0.99 0.33 1.98 0.66 3 1 C3 1.66 3 2.32 3 3 C4.32 3.33 5.64 3.66 7 4 C9.29612756 13.41002278 9.29612756 13.41002278 9 18 C8.34 17.01 7.68 16.02 7 15 C6.01 15.495 6.01 15.495 5 16 C4.49384702 14.73160474 3.99530901 13.46016898 3.5 12.1875 C3.2215625 11.47980469 2.943125 10.77210937 2.65625 10.04296875 C2 8 2 8 2 5 C1.34 5 0.68 5 0 5 C0 3.35 0 1.7 0 0 Z " fill="#ED395F" transform="translate(121,48)"/>
<path d="M0 0 C5.61 0 11.22 0 17 0 C17 1.32 17 2.64 17 4 C11.39 4 5.78 4 0 4 C0 2.68 0 1.36 0 0 Z " fill="#A71F43" transform="translate(48,49)"/>
<path d="M0 0 C1.32 0.33 2.64 0.66 4 1 C4 6.61 4 12.22 4 18 C3.01 17.67 2.02 17.34 1 17 C-0.53266582 13.93466836 -0.10276471 10.73245728 -0.0625 7.375 C-0.05798828 6.66859375 -0.05347656 5.9621875 -0.04882812 5.234375 C-0.03703875 3.48954725 -0.01910324 1.744763 0 0 Z " fill="#BF264F" transform="translate(35,66)"/>
<path d="M0 0 C3.39417765 3.12621626 5.6062718 5.56541027 7 10 C6.01 10.99 5.02 11.98 4 13 C2 12 -0 11 -2 10 C-2 8.35 -2 6.7 -2 5 C-1.01 4.67 -0.02 4.34 1 4 C0.67 2.68 0.34 1.36 0 0 Z " fill="#AB2446" transform="translate(37,108)"/>
<path d="M0 0 C7.26 0 14.52 0 22 0 C22 0.66 22 1.32 22 2 C23.32 2.33 24.64 2.66 26 3 C22.97910522 3.02716089 19.95845871 3.04691657 16.9375 3.0625 C16.08994141 3.07087891 15.24238281 3.07925781 14.36914062 3.08789062 C9.4638278 3.10683006 4.83555245 2.83326345 0 2 C0 1.34 0 0.68 0 0 Z " fill="#DE2F57" transform="translate(50,37)"/>
<path d="M0 0 C5.75 0.75 5.75 0.75 8 3 C8.26991906 5.68839385 8.08737357 8.29141936 8 11 C7.67 10.34 7.34 9.68 7 9 C5.824375 8.8453125 5.824375 8.8453125 4.625 8.6875 C2 8 2 8 0.125 5.625 C-1 3 -1 3 0 0 Z " fill="#AA3150" transform="translate(103,46)"/>
<path d="M0 0 C2.64 0 5.28 0 8 0 C8.33 6.93 8.66 13.86 9 21 C6.50873676 16.01747351 5.87156729 12.7883476 5.9375 7.25 C5.94652344 6.26515625 5.95554687 5.2803125 5.96484375 4.265625 C5.97644531 3.51796875 5.98804688 2.7703125 6 2 C4.35 1.67 2.7 1.34 1 1 C1 5.62 1 10.24 1 15 C0.67 15 0.34 15 0 15 C0 10.05 0 5.1 0 0 Z " fill="#D69AAB" transform="translate(40,66)"/>
<path d="M0 0 C4.34072171 0.37206186 8.07415115 2.22951915 12 4 C12 4.33 12 4.66 12 5 C9.03 5 6.06 5 3 5 C3 4.34 3 3.68 3 3 C2.01 3 1.02 3 0 3 C0 4.65 0 6.3 0 8 C1.299375 8.12375 2.59875 8.2475 3.9375 8.375 C6.15234375 8.5859375 6.15234375 8.5859375 8 9 C8.33 9.66 8.66 10.32 9 11 C7.35328588 10.69217504 5.70764424 10.37860766 4.0625 10.0625 C3.14597656 9.88847656 2.22945313 9.71445312 1.28515625 9.53515625 C-1 9 -1 9 -2 8 C-2.1875 5.0625 -2.1875 5.0625 -2 2 C-1.34 1.34 -0.68 0.68 0 0 Z " fill="#E8859A" transform="translate(88,22)"/>
<path d="M0 0 C6.16618181 -0.40214229 11.17745757 1.03181664 17 3 C17 3.33 17 3.66 17 4 C11.57089001 4.11551298 6.39130721 3.6635455 1 3 C-1.97 7.95 -1.97 7.95 -5 13 C-5.33 11.68 -5.66 10.36 -6 9 C-5.34 9 -4.68 9 -4 9 C-2.99782936 5.41672247 -2.99782936 5.41672247 -4 2 C-2.68 2 -1.36 2 0 2 C0 1.34 0 0.68 0 0 Z " fill="#C16B7F" transform="translate(96,143)"/>
<path d="M0 0 C1.3303125 0.37125 1.3303125 0.37125 2.6875 0.75 C2.6875 1.41 2.6875 2.07 2.6875 2.75 C3.3475 2.75 4.0075 2.75 4.6875 2.75 C4.6875 3.41 4.6875 4.07 4.6875 4.75 C0.5678623 6.04243536 -2.98081683 7.01252625 -7.3125 6.75 C-7.6425 5.76 -7.9725 4.77 -8.3125 3.75 C-4.12788462 -0.31153846 -4.12788462 -0.31153846 0 0 Z " fill="#DB2E59" transform="translate(74.3125,48.25)"/>
<path d="M0 0 C5.28 0 10.56 0 16 0 C16 1.65 16 3.3 16 5 C9.73 5 3.46 5 -3 5 C-3 4.67 -3 4.34 -3 4 C-2.21753906 3.95101562 -1.43507813 3.90203125 -0.62890625 3.8515625 C0.38300781 3.77679688 1.39492188 3.70203125 2.4375 3.625 C3.44683594 3.55539063 4.45617187 3.48578125 5.49609375 3.4140625 C6.73552734 3.20910156 6.73552734 3.20910156 8 3 C8.33 2.34 8.66 1.68 9 1 C6.03 1 3.06 1 0 1 C0 0.67 0 0.34 0 0 Z " fill="#AA2848" transform="translate(27,36)"/>
<path d="M0 0 C0 1.98 0 3.96 0 6 C-0.99 6 -1.98 6 -3 6 C-2.67 6.66 -2.34 7.32 -2 8 C-1.93049459 9.54023996 -1.91547643 11.08334988 -1.9375 12.625 C-1.94652344 13.44226563 -1.95554687 14.25953125 -1.96484375 15.1015625 C-1.97644531 15.72804688 -1.98804687 16.35453125 -2 17 C-2.99 17 -3.98 17 -5 17 C-5.02712153 15.083412 -5.04645097 13.1667127 -5.0625 11.25 C-5.07410156 10.18265625 -5.08570313 9.1153125 -5.09765625 8.015625 C-4.94533762 3.31202572 -4.94533762 3.31202572 -4 1 C-1 0 -1 0 0 0 Z " fill="#B4244B" transform="translate(66,65)"/>
<path d="M0 0 C-0.99 1.485 -0.99 1.485 -2 3 C-3.99951172 3.37231445 -3.99951172 3.37231445 -6.4296875 3.36328125 C-7.30753906 3.36263672 -8.18539062 3.36199219 -9.08984375 3.36132812 C-10.00894531 3.34521484 -10.92804688 3.32910156 -11.875 3.3125 C-13.24205078 3.31733398 -13.24205078 3.31733398 -14.63671875 3.32226562 C-19.0338716 3.28685663 -22.11777968 3.23213783 -26 1 C-25.12263184 0.96241577 -25.12263184 0.96241577 -24.22753906 0.92407227 C-21.56815529 0.80777038 -18.90909597 0.68519933 -16.25 0.5625 C-14.86941406 0.50352539 -14.86941406 0.50352539 -13.4609375 0.44335938 C-12.57148437 0.40146484 -11.68203125 0.35957031 -10.765625 0.31640625 C-9.94868164 0.27974854 -9.13173828 0.24309082 -8.29003906 0.20532227 C-5.99672254 0.06570977 -5.99672254 0.06570977 -3.82714844 -0.58227539 C-2 -1 -2 -1 0 0 Z " fill="#EA92A6" transform="translate(92,124)"/>
<path d="M0 0 C0.33 0 0.66 0 1 0 C1 2.31 1 4.62 1 7 C0.01 7.33 -0.98 7.66 -2 8 C-2.144375 8.5775 -2.28875 9.155 -2.4375 9.75 C-3.23451852 12.93807407 -4.72395056 14.66072697 -7 17 C-9.75 17.8125 -9.75 17.8125 -12 18 C-11.63648437 17.53851563 -11.27296875 17.07703125 -10.8984375 16.6015625 C-7.27300725 11.89779915 -4.15472932 7.05706107 -1.19921875 1.90625 C-0.80347656 1.2771875 -0.40773438 0.648125 0 0 Z " fill="#E76783" transform="translate(120,96)"/>
<path d="M0 0 C0.33 0 0.66 0 1 0 C1.32712342 6.13053511 1.39366878 10.62669111 -2 16 C-2.33 16 -2.66 16 -3 16 C-3.33 14.35 -3.66 12.7 -4 11 C-5.32 12.32 -6.64 13.64 -8 15 C-8.66 14.34 -9.32 13.68 -10 13 C-9.525625 12.29875 -9.05125 11.5975 -8.5625 10.875 C-6.91260143 7.83918663 -6.39631536 5.40831214 -6 2 C-5.67 2 -5.34 2 -5 2 C-4.67 3.98 -4.34 5.96 -4 8 C-3.01 8 -2.02 8 -1 8 C-0.67 5.36 -0.34 2.72 0 0 Z " fill="#E47B94" transform="translate(94,72)"/>
<path d="M0 0 C3.875 1.75 3.875 1.75 5 4 C5.08308638 5.37548156 5.10736016 6.75485796 5.09765625 8.1328125 C5.09282227 9.34130859 5.09282227 9.34130859 5.08789062 10.57421875 C5.07951172 11.41597656 5.07113281 12.25773437 5.0625 13.125 C5.05798828 13.97449219 5.05347656 14.82398437 5.04882812 15.69921875 C5.03702874 17.79950909 5.01909306 19.8997633 5 22 C4.01 21.67 3.02 21.34 2 21 C2.03480469 19.55367187 2.03480469 19.55367187 2.0703125 18.078125 C2.08835937 16.81484375 2.10640625 15.5515625 2.125 14.25 C2.14820312 12.99703125 2.17140625 11.7440625 2.1953125 10.453125 C2.01065342 7.18835242 1.5735379 5.75059381 0 3 C0 2.01 0 1.02 0 0 Z " fill="#CB264F" transform="translate(100,63)"/>
<path d="M0 0 C4.53214624 1.27880735 7.6214328 2.94894082 11.25 5.9375 C12.10078125 6.62714844 12.9515625 7.31679688 13.828125 8.02734375 C16 10 16 10 18 13 C11.58246347 12.39457203 11.58246347 12.39457203 9.0625 10.6875 C8 9 8 9 8 5 C6.865625 4.731875 5.73125 4.46375 4.5625 4.1875 C3.386875 3.795625 2.21125 3.40375 1 3 C0.67 2.01 0.34 1.02 0 0 Z " fill="#EA6E8A" transform="translate(102,28)"/>
<path d="M0 0 C0.99 0 1.98 0 3 0 C3 0.66 3 1.32 3 2 C5.97 2 8.94 2 12 2 C12.33 2.99 12.66 3.98 13 5 C12 6 12 6 8.75 6.125 C5.66396211 6.02213207 2.98575886 5.72382033 0 5 C0 3.35 0 1.7 0 0 Z " fill="#E8355E" transform="translate(88,25)"/>
<path d="M0 0 C5.61 0.33 11.22 0.66 17 1 C17 1.33 17 1.66 17 2 C12.545 2.495 12.545 2.495 8 3 C8.99 3.66 9.98 4.32 11 5 C8.69 4.67 6.38 4.34 4 4 C4 4.66 4 5.32 4 6 C2.68 5.67 1.36 5.34 0 5 C0 3.35 0 1.7 0 0 Z " fill="#B22348" transform="translate(9,61)"/>
<path d="M0 0 C4.92715996 -0.46192125 8.50732625 1.1724717 13 3 C13 3.33 13 3.66 13 4 C11.2984375 4.2165625 11.2984375 4.2165625 9.5625 4.4375 C6.19222799 4.61171478 6.19222799 4.61171478 5 6 C3.33382885 6.04063832 1.66611905 6.042721 0 6 C0 4.02 0 2.04 0 0 Z " fill="#DA2D55" transform="translate(9,35)"/>
<path d="M0 0 C3.96 0 7.92 0 12 0 C12 1.32 12 2.64 12 4 C2.76 4 -6.48 4 -16 4 C-16 3.67 -16 3.34 -16 3 C-8.08 2.67 -0.16 2.34 8 2 C5.36 1.67 2.72 1.34 0 1 C0 0.67 0 0.34 0 0 Z " fill="#9E2745" transform="translate(72,24)"/>
<path d="M0 0 C1.65 0 3.3 0 5 0 C5 0.66 5 1.32 5 2 C7.97 2 10.94 2 14 2 C13.67 2.99 13.34 3.98 13 5 C8.48281619 6.36884358 5.41225737 5.47075246 1 4 C0.67 2.68 0.34 1.36 0 0 Z " fill="#C8284E" transform="translate(67,87)"/>
<path d="M0 0 C0.33 0.66 0.66 1.32 1 2 C-1.64 2 -4.28 2 -7 2 C-7 3.65 -7 5.3 -7 7 C-5.35 7.33 -3.7 7.66 -2 8 C-2.33 8.66 -2.66 9.32 -3 10 C-7.75 9.25 -7.75 9.25 -10 7 C-9.75 3.4375 -9.75 3.4375 -9 0 C-5.88173308 -1.55913346 -3.32926126 -0.66585225 0 0 Z " fill="#DE7B93" transform="translate(16,47)"/>
<path d="M0 0 C2 2 2 2 2.125 5.125 C2.08375 6.07375 2.0425 7.0225 2 8 C0.576875 8.2165625 0.576875 8.2165625 -0.875 8.4375 C-3.8934494 8.82935399 -3.8934494 8.82935399 -6 10 C-5.72510809 5.96825194 -5.46508424 4.43105369 -2.4375 1.625 C-1.633125 1.08875 -0.82875 0.5525 0 0 Z " fill="#E34A6A" transform="translate(107,98)"/>
<path d="M0 0 C1.45947705 0.06006078 2.91779272 0.1488689 4.375 0.25 C5.59316406 0.31960937 5.59316406 0.31960937 6.8359375 0.390625 C9 1 9 1 10.2890625 2.859375 C11 5 11 5 11 8 C9.68 8 8.36 8 7 8 C7 7.34 7 6.68 7 6 C6.401875 5.71125 5.80375 5.4225 5.1875 5.125 C3 4 3 4 0 2 C0 1.34 0 0.68 0 0 Z " fill="#CC3A5B" transform="translate(53,108)"/>
<path d="M0 0 C0.66 0 1.32 0 2 0 C2 1.65 2 3.3 2 5 C2.66 5 3.32 5 4 5 C4 6.32 4 7.64 4 9 C5.65 9.33 7.3 9.66 9 10 C9.33 12.64 9.66 15.28 10 18 C5.13543544 13.83037323 2.36641848 8.94122086 0 3 C0 2.01 0 1.02 0 0 Z " fill="#CD6D87" transform="translate(36,88)"/>
<path d="M0 0 C0.66 0 1.32 0 2 0 C2.36504603 1.58086048 2.71660506 3.16483907 3.0625 4.75 C3.25972656 5.63171875 3.45695312 6.5134375 3.66015625 7.421875 C3.99825872 9.98679028 3.81158635 11.57091639 3 14 C2.01 14 1.02 14 0 14 C0 9.38 0 4.76 0 0 Z " fill="#C52751" transform="translate(23,67)"/>
<path d="M0 0 C2.88437779 1.29299694 4.87219421 2.65941363 7 5 C5.35 5 3.7 5 2 5 C2.66 7.31 3.32 9.62 4 12 C2.68388323 11.04663979 1.37221039 10.08714226 0.0625 9.125 C-0.66839844 8.59132813 -1.39929688 8.05765625 -2.15234375 7.5078125 C-4 6 -4 6 -5 4 C-3.02 3.67 -1.04 3.34 1 3 C0.67 2.01 0.34 1.02 0 0 Z " fill="#C9768B" transform="translate(101,42)"/>
<path d="M0 0 C1.9375 0.6875 1.9375 0.6875 4 2 C4.75 4.625 4.75 4.625 5 7 C2.03 6.505 2.03 6.505 -1 6 C-1.33 6.99 -1.66 7.98 -2 9 C-2.6875 6.1875 -2.6875 6.1875 -3 3 C-1.5625 1.125 -1.5625 1.125 0 0 Z " fill="#AB1E41" transform="translate(44,119)"/>
<path d="M0 0 C5.27697132 -0.20694005 9.08971282 -0.03597273 14 2 C17.32352955 2.46817522 20.65339954 2.75306637 24 3 C24 3.33 24 3.66 24 4 C15.43325085 4.33328851 8.04926924 4.11584616 0 1 C0 0.67 0 0.34 0 0 Z " fill="#E58FA5" transform="translate(60,116)"/>
<path d="M0 0 C0.33 0.66 0.66 1.32 1 2 C1.639375 1.814375 2.27875 1.62875 2.9375 1.4375 C3.9584375 1.2209375 3.9584375 1.2209375 5 1 C6 2 6 2 6.0625 4.5625 C6.041875 5.366875 6.02125 6.17125 6 7 C4.02 7 2.04 7 0 7 C-1.125 2.25 -1.125 2.25 0 0 Z " fill="#C13256" transform="translate(24,84)"/>
<path d="M0 0 C1.32 0 2.64 0 4 0 C4 0.66 4 1.32 4 2 C3.34 2 2.68 2 2 2 C2.33 3.32 2.66 4.64 3 6 C3.99 6 4.98 6 6 6 C6.33 7.98 6.66 9.96 7 12 C5.84775972 11.07038578 4.70340824 10.1309875 3.5625 9.1875 C2.92441406 8.66542969 2.28632812 8.14335937 1.62890625 7.60546875 C0 6 0 6 -1 3 C-0.67 2.01 -0.34 1.02 0 0 Z " fill="#B64F6A" transform="translate(43,125)"/>
<path d="M0 0 C-0.66 0 -1.32 0 -2 0 C-2 0.66 -2 1.32 -2 2 C-11.41002278 3.33257403 -11.41002278 3.33257403 -16 2 C-16 1.34 -16 0.68 -16 0 C-13.89651926 -0.19504458 -11.79217415 -0.38078496 -9.6875 -0.5625 C-8.51574219 -0.66691406 -7.34398438 -0.77132812 -6.13671875 -0.87890625 C-3 -1 -3 -1 0 0 Z " fill="#DB2B55" transform="translate(88,115)"/>
<path d="M0 0 C2.97 0.495 2.97 0.495 6 1 C6 1.66 6 2.32 6 3 C4.02 3.33 2.04 3.66 0 4 C0.33 4.66 0.66 5.32 1 6 C-0.32 6 -1.64 6 -3 6 C-3 6.66 -3 7.32 -3 8 C-4.32 7.67 -5.64 7.34 -7 7 C-6.01 7 -5.02 7 -4 7 C-4 6.34 -4 5.68 -4 5 C-4.66 4.34 -5.32 3.68 -6 3 C-4.02 2.67 -2.04 2.34 0 2 C0 1.34 0 0.68 0 0 Z " fill="#D7345A" transform="translate(96,108)"/>
<path d="M0 0 C1.79133978 -0.05391993 3.58313899 -0.09275571 5.375 -0.125 C6.37273437 -0.14820313 7.37046875 -0.17140625 8.3984375 -0.1953125 C11 0 11 0 13 2 C12.01 3.32 11.02 4.64 10 6 C9.67 5.01 9.34 4.02 9 3 C6.03 2.67 3.06 2.34 0 2 C0 1.34 0 0.68 0 0 Z " fill="#C2264D" transform="translate(75,63)"/>
<path d="M0 0 C0.61875 0.350625 1.2375 0.70125 1.875 1.0625 C2.57625 1.371875 3.2775 1.68125 4 2 C4.66 1.67 5.32 1.34 6 1 C7.125 7.75 7.125 7.75 6 10 C4.99421411 8.71283353 3.99553202 7.42011342 3 6.125 C2.443125 5.40570313 1.88625 4.68640625 1.3125 3.9453125 C0 2 0 2 0 0 Z M8 0 C8 3 8 3 8 3 Z " fill="#B5526C" transform="translate(35,118)"/>
<path d="M0 0 C1.65 0 3.3 0 5 0 C5 0.66 5 1.32 5 2 C5.66 2.33 6.32 2.66 7 3 C7.33 3.66 7.66 4.32 8 5 C5.03 5 2.06 5 -1 5 C-0.67 3.35 -0.34 1.7 0 0 Z " fill="#AA2448" transform="translate(75,101)"/>
<path d="M0 0 C-2.85276137 2.93200474 -5.65079784 5.64315404 -9 8 C-9.66 7.67 -10.32 7.34 -11 7 C-11 6.34 -11 5.68 -11 5 C-10.01 5 -9.02 5 -8 5 C-8 4.34 -8 3.68 -8 3 C-7.34 3 -6.68 3 -6 3 C-6 2.01 -6 1.02 -6 0 C-3.50907189 -1.24546405 -2.58919267 -0.7767578 0 0 Z " fill="#CF617B" transform="translate(101,96)"/>
<path d="M0 0 C2.4932534 0.99730136 3.77467439 1.65074531 5.25 3.9375 C6 6 6 6 6 9 C4.35 8.67 2.7 8.34 1 8 C0.67 5.36 0.34 2.72 0 0 Z " fill="#BF284E" transform="translate(45,98)"/>
<path d="M0 0 C0.66 2.64 1.32 5.28 2 8 C-1 8 -1 8 -3 7 C-3 5.68 -3 4.36 -3 3 C-3.66 3 -4.32 3 -5 3 C-5 2.34 -5 1.68 -5 1 C-2 0 -2 0 0 0 Z " fill="#BA274D" transform="translate(43,90)"/>
<path d="M0 0 C-1 3 -1 3 -2.9609375 4.16796875 C-3.75757812 4.50441406 -4.55421875 4.84085937 -5.375 5.1875 C-6.56222656 5.70376953 -6.56222656 5.70376953 -7.7734375 6.23046875 C-10 7 -10 7 -13 7 C-13 6.34 -13 5.68 -13 5 C-11.35 5 -9.7 5 -8 5 C-8 4.34 -8 3.68 -8 3 C-5.65966534 -0.20256322 -3.8395009 -0.31131088 0 0 Z " fill="#E16E8A" transform="translate(101,111)"/>
<path d="M0 0 C0.27585938 0.55558594 0.55171875 1.11117187 0.8359375 1.68359375 C1.64130031 3.2862117 2.45992031 4.88221078 3.2890625 6.47265625 C3.72992188 7.32730469 4.17078125 8.18195313 4.625 9.0625 C5.07101563 9.91972656 5.51703125 10.77695313 5.9765625 11.66015625 C7 14 7 14 7 17 C5.0625 15.9375 5.0625 15.9375 3 14 C2.25 10.3125 2.25 10.3125 2 7 C1.34 7 0.68 7 0 7 C0 4.69 0 2.38 0 0 Z " fill="#D57E98" transform="translate(41,83)"/>
<path d="M0 0 C0.99 0 1.98 0 3 0 C3.36923077 6.52307692 3.36923077 6.52307692 1.5 8.9375 C1.005 9.288125 0.51 9.63875 0 10 C-0.66 9.67 -1.32 9.34 -2 9 C-1.34 6.03 -0.68 3.06 0 0 Z " fill="#D94F6E" transform="translate(88,82)"/>
<path d="M0 0 C3.12290635 0.48578543 5.99580359 0.9986012 9 2 C9.33 3.65 9.66 5.3 10 7 C6.433255 7 5.89456323 6.36308045 3.3125 4.0625 C2.68988281 3.51722656 2.06726563 2.97195312 1.42578125 2.41015625 C0.95527344 1.94480469 0.48476562 1.47945312 0 1 C0 0.67 0 0.34 0 0 Z " fill="#C95F7A" transform="translate(89,57)"/>
<path d="M0 0 C2.51307101 3.76960651 2.13326066 5.537243 1.8125 10 C1.73644531 11.2375 1.66039063 12.475 1.58203125 13.75 C0.9962308 17.02104681 0.62335787 18.07667563 -2 20 C-3 18 -3 18 -2.44140625 16.15234375 C-2.15136719 15.42144531 -1.86132812 14.69054687 -1.5625 13.9375 C0.16614243 9.09730119 0.24339787 5.1113553 0 0 Z " fill="#DF899E" transform="translate(100,70)"/>
<path d="M0 0 C0.99 0 1.98 0 3 0 C3 2.31 3 4.62 3 7 C1.02 6.34 -0.96 5.68 -3 5 C-1.125 1.125 -1.125 1.125 0 0 Z " fill="#E9456B" transform="translate(118,41)"/>
<path d="M0 0 C1.32 0 2.64 0 4 0 C3.4359146 3.94859783 2.2568294 6.70879046 0 10 C-0.33 10 -0.66 10 -1 10 C-1 8.02 -1 6.04 -1 4 C-0.34 4 0.32 4 1 4 C0.67 2.68 0.34 1.36 0 0 Z " fill="#D46681" transform="translate(102,85)"/>
<path d="M0 0 C1.2065625 0.0309375 1.2065625 0.0309375 2.4375 0.0625 C1.4475 1.238125 1.4475 1.238125 0.4375 2.4375 C-1.76451441 4.77762812 -1.76451441 4.77762812 -1.5625 7.0625 C0.0875 7.0625 1.7375 7.0625 3.4375 7.0625 C3.1075 7.7225 2.7775 8.3825 2.4375 9.0625 C0.7875 8.7325 -0.8625 8.4025 -2.5625 8.0625 C-2.94313221 5.7364143 -3.27519945 3.40194736 -3.5625 1.0625 C-2.5625 0.0625 -2.5625 0.0625 0 0 Z " fill="#DF587B" transform="translate(68.5625,47.9375)"/>
<path d="M0 0 C1.32 0 2.64 0 4 0 C4 0.66 4 1.32 4 2 C5.32 2 6.64 2 8 2 C8.33 2.99 8.66 3.98 9 5 C8.34 5.66 7.68 6.32 7 7 C3.42895561 5.12050295 1.45255699 3.82946843 0 0 Z " fill="#D22E55" transform="translate(46,119)"/>
<path d="M0 0 C4.84166786 0.45038771 7.49668287 1.59972161 11 5 C11 5.66 11 6.32 11 7 C6.00724943 5.72278474 3.42388092 3.82669043 0 0 Z " fill="#D4738D" transform="translate(49,109)"/>
<path d="M0 0 C1.65 0.33 3.3 0.66 5 1 C5 1.99 5 2.98 5 4 C3.68 4 2.36 4 1 4 C0.67 5.32 0.34 6.64 0 8 C0 7.34 0 6.68 0 6 C-0.66 6 -1.32 6 -2 6 C-1.34 4.02 -0.68 2.04 0 0 Z " fill="#F9385D" transform="translate(138,100)"/>
<path d="M0 0 C3.26954202 0.56371414 4.82575883 1.49962266 7 4 C4.625 5.0625 4.625 5.0625 2 6 C1.34 5.67 0.68 5.34 0 5 C0 3.35 0 1.7 0 0 Z " fill="#B92B4F" transform="translate(86,37)"/>
<path d="M0 0 C0.94875 0.04125 1.8975 0.0825 2.875 0.125 C2.875 1.115 2.875 2.105 2.875 3.125 C0.565 3.125 -1.745 3.125 -4.125 3.125 C-4.125 4.445 -4.125 5.765 -4.125 7.125 C-3.465 7.455 -2.805 7.785 -2.125 8.125 C-3.115 8.125 -4.105 8.125 -5.125 8.125 C-5.25 5.25 -5.25 5.25 -5.125 2.125 C-3.125 0.125 -3.125 0.125 0 0 Z " fill="#E17890" transform="translate(11.125,20.875)"/>
<path d="M0 0 C0.33 0.99 0.66 1.98 1 3 C0.34 3 -0.32 3 -1 3 C-1 4.98 -1 6.96 -1 9 C-1.99 9 -2.98 9 -4 9 C-4 7.02 -4 5.04 -4 3 C-3.34 3 -2.68 3 -2 3 C-2 2.34 -2 1.68 -2 1 C-1.34 0.67 -0.68 0.34 0 0 Z " fill="#CD2A53" transform="translate(102,86)"/>
<path d="M0 0 C2.95409701 1.37154504 5.44008376 2.98863724 8 5 C7.67 5.66 7.34 6.32 7 7 C4.03 6.01 1.06 5.02 -2 4 C-1.34 2.68 -0.68 1.36 0 0 Z " fill="#CD6780" transform="translate(93,52)"/>
<path d="M0 0 C0.99 0.33 1.98 0.66 3 1 C3 1.66 3 2.32 3 3 C4.32 3.33 5.64 3.66 7 4 C7.33 5.32 7.66 6.64 8 8 C7.34 8 6.68 8 6 8 C5.525625 7.505 5.05125 7.01 4.5625 6.5 C3.00030058 4.65373409 3.00030058 4.65373409 0 5 C0 3.35 0 1.7 0 0 Z " fill="#ED5172" transform="translate(121,48)"/>
<path d="M0 0 C2.31 0 4.62 0 7 0 C6.67 0.99 6.34 1.98 6 3 C2.37 3 -1.26 3 -5 3 C-5 2.67 -5 2.34 -5 2 C-3.35 2 -1.7 2 0 2 C0 1.34 0 0.68 0 0 Z " fill="#BF244B" transform="translate(29,37)"/>
<path d="M0 0 C2.97 0.33 5.94 0.66 9 1 C9 1.33 9 1.66 9 2 C11.97 2.495 11.97 2.495 15 3 C15 3.33 15 3.66 15 4 C9.01006953 4.3152595 5.36439644 3.68219822 0 1 C0 0.67 0 0.34 0 0 Z " fill="#C4778B" transform="translate(74,155)"/>
<path d="M0 0 C1.65 0 3.3 0 5 0 C3.02 3.63 1.04 7.26 -1 11 C-1.33 9.68 -1.66 8.36 -2 7 C-1.34 7 -0.68 7 0 7 C1.00217064 3.41672247 1.00217064 3.41672247 0 0 Z " fill="#C77188" transform="translate(92,145)"/>
<path d="M0 0 C0.66 0 1.32 0 2 0 C2.04125 0.61875 2.0825 1.2375 2.125 1.875 C2.41375 2.57625 2.7025 3.2775 3 4 C5.99615946 5.3045656 5.99615946 5.3045656 9 6 C9 6.66 9 7.32 9 8 C6.1875 7.9375 6.1875 7.9375 3 7 C1.5073959 4.72555566 0.85757989 2.62038301 0 0 Z " fill="#C77388" transform="translate(54,95)"/>
<path d="M0 0 C0.598125 0.763125 1.19625 1.52625 1.8125 2.3125 C3.46959332 4.3483575 5.10297674 6.1978279 7 8 C5.00045254 8.04254356 2.99958364 8.04080783 1 8 C0 7 0 7 -0.0625 3.4375 C-0.041875 2.303125 -0.02125 1.16875 0 0 Z " fill="#CE6881" transform="translate(66,79)"/>
<path d="M0 0 C6.4 -0.36923077 6.4 -0.36923077 9.4375 1.5 C9.953125 1.995 10.46875 2.49 11 3 C9.35 3.66 7.7 4.32 6 5 C6 4.01 6 3.02 6 2 C3.03 1.505 3.03 1.505 0 1 C0 0.67 0 0.34 0 0 Z " fill="#C65973" transform="translate(82,49)"/>
<path d="M0 0 C2.4375 0.375 2.4375 0.375 5 1 C5.33 1.66 5.66 2.32 6 3 C5.67 3.66 5.34 4.32 5 5 C2.69 4.67 0.38 4.34 -2 4 C-1.34 2.68 -0.68 1.36 0 0 Z " fill="#9F2345" transform="translate(68,100)"/>
<path d="M0 0 C0.66 0 1.32 0 2 0 C2.33 1.32 2.66 2.64 3 4 C2.34 4 1.68 4 1 4 C1.33 5.32 1.66 6.64 2 8 C-2.875 6.25 -2.875 6.25 -4 4 C-2.68 3.34 -1.36 2.68 0 2 C0 1.34 0 0.68 0 0 Z " fill="#E45C7B" transform="translate(100,27)"/>
<path d="M0 0 C1 3 1 3 0.22265625 5.04296875 C-0.16019531 5.75066406 -0.54304688 6.45835938 -0.9375 7.1875 C-1.31777344 7.90292969 -1.69804688 8.61835937 -2.08984375 9.35546875 C-2.54037109 10.16951172 -2.54037109 10.16951172 -3 11 C-3.33 11 -3.66 11 -4 11 C-4.17754126 7.09409237 -4.20731737 4.31097606 -2 1 C-1.34 0.67 -0.68 0.34 0 0 Z " fill="#EB7C93" transform="translate(117,89)"/>
<path d="M0 0 C1.65 0 3.3 0 5 0 C5 0.99 5 1.98 5 3 C5.99 3.66 6.98 4.32 8 5 C5.69 4.67 3.38 4.34 1 4 C0.67 2.68 0.34 1.36 0 0 Z " fill="#B8274C" transform="translate(67,87)"/>
<path d="M0 0 C0.94875 0.04125 1.8975 0.0825 2.875 0.125 C2.545 1.115 2.215 2.105 1.875 3.125 C-0.105 3.125 -2.085 3.125 -4.125 3.125 C-4.125 4.775 -4.125 6.425 -4.125 8.125 C-4.455 8.125 -4.785 8.125 -5.125 8.125 C-5.25 5.25 -5.25 5.25 -5.125 2.125 C-3.125 0.125 -3.125 0.125 0 0 Z " fill="#CC8194" transform="translate(11.125,58.875)"/>
<path d="M0 0 C0.33 0 0.66 0 1 0 C1 2.31 1 4.62 1 7 C-0.65 7.66 -2.3 8.32 -4 9 C-2.80100302 5.9168649 -1.52299523 2.93720508 0 0 Z " fill="#EE839C" transform="translate(120,96)"/>
<path d="M0 0 C5.66153846 2.46153846 5.66153846 2.46153846 7.375 5.1875 C7.58125 5.785625 7.7875 6.38375 8 7 C4.84859577 6.65930765 3.39218439 6.41923159 1.1875 4.0625 C0 2 0 2 0 0 Z " fill="#C9738B" transform="translate(59,91)"/>
<path d="M0 0 C0.99 0 1.98 0 3 0 C3 2.97 3 5.94 3 9 C2.01 9.495 2.01 9.495 1 10 C0.67 6.7 0.34 3.4 0 0 Z " fill="#C35370" transform="translate(63,71)"/>
<path d="M0 0 C0.99 0.495 0.99 0.495 2 1 C2.6328125 3.06640625 2.6328125 3.06640625 3.125 5.5625 C3.29257813 6.38878906 3.46015625 7.21507812 3.6328125 8.06640625 C3.75398438 8.70449219 3.87515625 9.34257813 4 10 C3.01 10 2.02 10 1 10 C0.67 6.7 0.34 3.4 0 0 Z " fill="#EA6382" transform="translate(123,56)"/>
<path d="M0 0 C4.43090471 1.20842856 6.98112756 2.51668565 10 6 C9.01 6.495 9.01 6.495 8 7 C8 6.34 8 5.68 8 5 C6.865625 4.731875 5.73125 4.46375 4.5625 4.1875 C3.386875 3.795625 2.21125 3.40375 1 3 C0.67 2.01 0.34 1.02 0 0 Z " fill="#E97F98" transform="translate(102,28)"/>
<path d="M0 0 C3.8063457 0.67170806 7.35206816 1.72746564 11 3 C11 3.33 11 3.66 11 4 C8.69 4 6.38 4 4 4 C4 3.34 4 2.68 4 2 C3.01 2.33 2.02 2.66 1 3 C0.67 2.01 0.34 1.02 0 0 Z " fill="#E4899E" transform="translate(54,121)"/>
<path d="M0 0 C2.475 0.495 2.475 0.495 5 1 C5 1.66 5 2.32 5 3 C4.67 3.33 4.34 3.66 4 4 C4.33 4.66 4.66 5.32 5 6 C4.34 6.66 3.68 7.32 3 8 C0 2.25 0 2.25 0 0 Z " fill="#BD6480" transform="translate(29,107)"/>
<path d="M0 0 C0.99 0 1.98 0 3 0 C2.67 1.98 2.34 3.96 2 6 C1.01 6 0.02 6 -1 6 C-0.67 4.02 -0.34 2.04 0 0 Z " fill="#ED5C7C" transform="translate(122,92)"/>
<path d="M0 0 C1.77706209 2.66559313 2.87548273 5.0280615 4 8 C3.01 8.33 2.02 8.66 1 9 C-0.61949011 6.42786866 -1.04408751 5.32330841 -0.625 2.25 C-0.41875 1.5075 -0.2125 0.765 0 0 Z " fill="#F77F98" transform="translate(133,84)"/>
<path d="M0 0 C0.66 0.33 1.32 0.66 2 1 C2 2.98 2 4.96 2 7 C1.01 6.67 0.02 6.34 -1 6 C-1 5.34 -1 4.68 -1 4 C-2.32 3.34 -3.64 2.68 -5 2 C-2.625 0.9375 -2.625 0.9375 0 0 Z " fill="#E86B87" transform="translate(97,120)"/>
<path d="M0 0 C0 0.66 0 1.32 0 2 C0.99 2.33 1.98 2.66 3 3 C3 3.66 3 4.32 3 5 C0.36 4.34 -2.28 3.68 -5 3 C-2.25 0 -2.25 0 0 0 Z " fill="#C86179" transform="translate(93,41)"/>
<path d="M0 0 C0.99 0.99 1.98 1.98 3 3 C2.01 4.485 2.01 4.485 1 6 C-0.32 5.34 -1.64 4.68 -3 4 C-2.67 3.34 -2.34 2.68 -2 2 C-1.34 2 -0.68 2 0 2 C0 1.34 0 0.68 0 0 Z " fill="#A31D3F" transform="translate(40,115)"/>
<path d="M0 0 C1.32 0 2.64 0 4 0 C3.6875 1.875 3.6875 1.875 3 4 C2.01 4.66 1.02 5.32 0 6 C0 4.02 0 2.04 0 0 Z " fill="#ED5A77" transform="translate(139,104)"/>
<path d="M0 0 C1.32 0 2.64 0 4 0 C4 1.32 4 2.64 4 4 C2.68 4.33 1.36 4.66 0 5 C0 3.35 0 1.7 0 0 Z " fill="#C73258" transform="translate(87,66)"/>
<path d="M0 0 C2.79872437 2.52788007 4.45773019 4.20411134 5 8 C4.34 8 3.68 8 3 8 C0.25624329 5.04518508 0 4.22528092 0 0 Z " fill="#D07A90" transform="translate(101,59)"/>
<path d="M0 0 C2.64 1.65 5.28 3.3 8 5 C6.68 5.33 5.36 5.66 4 6 C1.75 4.1875 1.75 4.1875 0 2 C0 1.34 0 0.68 0 0 Z " fill="#DD7D95" transform="translate(46,115)"/>
<path d="M0 0 C2.31 0.33 4.62 0.66 7 1 C6.01 2.32 5.02 3.64 4 5 C2 3.625 2 3.625 0 2 C0 1.34 0 0.68 0 0 Z " fill="#C82B51" transform="translate(53,108)"/>
<path d="M0 0 C3 1 3 1 5 4 C2.69 4.66 0.38 5.32 -2 6 C-2.33 5.34 -2.66 4.68 -3 4 C-1.68 4 -0.36 4 1 4 C0.67 2.68 0.34 1.36 0 0 Z " fill="#AD3A58" transform="translate(66,98)"/>
<path d="M0 0 C1.9375 0.75 1.9375 0.75 4 2 C4.75 4.125 4.75 4.125 5 6 C4.01 6.495 4.01 6.495 3 7 C3 6.34 3 5.68 3 5 C2.34 5 1.68 5 1 5 C0.67 3.35 0.34 1.7 0 0 Z " fill="#C6546D" transform="translate(98,65)"/>
<path d="M0 0 C0.33 0 0.66 0 1 0 C1.33 1.98 1.66 3.96 2 6 C0.68 6.33 -0.64 6.66 -2 7 C-1.125 1.125 -1.125 1.125 0 0 Z " fill="#A51E40" transform="translate(114,57)"/>
<path d="M0 0 C2.88437779 1.29299694 4.87219421 2.65941363 7 5 C4.125 5.125 4.125 5.125 1 5 C0.34 4.34 -0.32 3.68 -1 3 C-0.34 3 0.32 3 1 3 C0.67 2.01 0.34 1.02 0 0 Z " fill="#C66783" transform="translate(101,42)"/>
</svg>
